<?xml version="1.0" encoding="utf-8"?>
<!-- Generator: Adobe Illustrator 23.0.1, SVG Export Plug-In . SVG Version: 6.00 Build 0)  -->
<svg version="1.1" id="Layer_1" xmlns="http://www.w3.org/2000/svg" xmlns:xlink="http://www.w3.org/1999/xlink" x="0px" y="0px"
	 viewBox="0 0 60.9 60.9" style="enable-background:new 0 0 60.9 60.9;" xml:space="preserve">
<style type="text/css">
	.st0{fill-rule:evenodd;clip-rule:evenodd;fill:#4C4D53;}
	.st1{fill-rule:evenodd;clip-rule:evenodd;fill:#E31D38;}
	.st2{fill:#FFFFFF;}
</style>
<path class="st0" d="M60.7,30.7c0,16.8-13.6,30.5-30.5,30.5c-16.8,0-30.5-13.6-30.5-30.5c0-16.8,13.6-30.5,30.5-30.5
	C47.1,0.3,60.7,13.9,60.7,30.7z"/>
<path class="st1" d="M54.9,30.7c0,13.6-11,24.6-24.6,24.6c-13.6,0-24.6-11-24.6-24.6s11-24.6,24.6-24.6S54.9,17.1,54.9,30.7z"/>
<g>
	<path class="st2" d="M33.6,22.7h1.5c0.9,0,1.5,0.8,1.3,1.6l-2.9,13.2c-0.1,0.6-0.7,1.1-1.3,1.1h-4c-0.6,0-1.2-0.4-1.3-1.1L25,28.6
		h-0.2l-2.1,8.9c-0.1,0.6-0.7,1-1.3,1h-3.9c-0.6,0-1.2-0.4-1.3-1.1l-2.9-13.2c-0.2-0.8,0.5-1.6,1.3-1.6h1.5c0.7,0,1.2,0.5,1.3,1.1
		l2.1,11.2h0.1l2.7-11.2c0.1-0.6,0.7-1,1.3-1h2.3c0.6,0,1.2,0.4,1.3,1L30,34.9h0.1l2.2-11.2C32.4,23.1,33,22.7,33.6,22.7z"/>
	<g>
		<path class="st2" d="M42.2,38.8c-1.8,0-3.2-0.5-4.3-1.6s-1.7-2.5-1.7-4.3v-0.3c0-1.2,0.2-2.3,0.7-3.3c0.5-1,1.1-1.7,2-2.2
			c0.9-0.5,1.8-0.8,2.9-0.8c1.7,0,3,0.5,3.9,1.6c1,1,1.4,2.5,1.4,4.4V33c0,0.3-0.3,0.6-0.6,0.6h-6.3c-0.4,0-0.7,0.4-0.6,0.8
			c0.2,0.4,0.4,0.8,0.7,1.1c0.5,0.5,1.2,0.7,2,0.7c1,0,1.9-0.3,2.5-0.9c0.2-0.2,0.6-0.2,0.8,0l0.8,0.9c0.2,0.2,0.2,0.6,0,0.8
			c-0.4,0.5-1,0.9-1.6,1.2C44.2,38.6,43.2,38.8,42.2,38.8z M41.9,28.9c-0.6,0-1.2,0.2-1.6,0.7c-0.3,0.3-0.5,0.7-0.6,1.1
			c-0.1,0.4,0.2,0.7,0.6,0.7H44v-0.3c0-0.7-0.2-1.3-0.6-1.7C43.1,29.1,42.5,28.9,41.9,28.9z"/>
	</g>
</g>
</svg>
