<?xml version="1.0" encoding="utf-8"?>
<!-- Generator: Adobe Illustrator 23.0.1, SVG Export Plug-In . SVG Version: 6.00 Build 0)  -->
<svg version="1.1" id="Layer_1" xmlns="http://www.w3.org/2000/svg" xmlns:xlink="http://www.w3.org/1999/xlink" x="0px" y="0px"
	 viewBox="0 0 100 100" style="enable-background:new 0 0 100 100;" xml:space="preserve">
<style type="text/css">
	.st0{fill:#FFFFFF;}
</style>
<g>
	<path class="st0" d="M69.1,43.9c0-2-1.7-3.7-3.7-3.7H26.7c-2.1,0-3.7,1.7-3.7,3.7s1.7,3.7,3.7,3.7h38.6
		C67.4,47.6,69.1,46,69.1,43.9z M26.7,55c-2.1,0-3.7,1.7-3.7,3.7s1.7,3.7,3.7,3.7h23.4c2.1,0,3.7-1.7,3.7-3.7S52.1,55,50.1,55H26.7z
		 M35.5,90.6H23c-4.1,0-7.5-3.3-7.5-7.4V18c0-4.1,3.4-7.4,7.5-7.4h46.1c4.1,0,7.5,3.3,7.5,7.4v22.8c0,2,1.7,3.7,3.7,3.7
		c2.1,0,3.7-1.7,3.7-3.7V18c0-8.2-6.7-14.8-15-14.8H23C14.7,3.2,8,9.9,8,18v65.2C8,91.4,14.7,98,23,98h12.5c2.1,0,3.7-1.7,3.7-3.7
		C39.3,92.3,37.6,90.6,35.5,90.6z M90.7,56.8c-4.4-4.3-11.5-4.3-15.9,0L54.2,77.1c-0.4,0.4-0.8,1-0.9,1.5l-4.5,14.6
		c-0.4,1.3-0.1,2.7,0.9,3.7c0.7,0.7,1.7,1.1,2.7,1.1c0.3,0,0.7,0,1-0.1l15.1-4.1c0.6-0.2,1.2-0.5,1.6-0.9l20.5-20.2
		C95.1,68.2,95.1,61.2,90.7,56.8z M65.6,86.8L58,88.9l2.2-7.2L74.1,68l5.3,5.2L65.6,86.8z M85.4,67.3L84.7,68l-5.3-5.2l0.7-0.7
		c1.5-1.4,3.8-1.4,5.3,0C86.9,63.5,86.9,65.8,85.4,67.3z M65.3,25.4H26.7c-2.1,0-3.7,1.7-3.7,3.7s1.7,3.7,3.7,3.7h38.6
		c2.1,0,3.7-1.7,3.7-3.7S67.4,25.4,65.3,25.4z"/>
</g>
</svg>
