<?xml version="1.0" encoding="utf-8"?>
<!-- Generator: Adobe Illustrator 23.0.1, SVG Export Plug-In . SVG Version: 6.00 Build 0)  -->
<svg version="1.1" id="Layer_1" xmlns="http://www.w3.org/2000/svg" xmlns:xlink="http://www.w3.org/1999/xlink" x="0px" y="0px"
	 viewBox="0 0 480 480" style="enable-background:new 0 0 480 480;" xml:space="preserve">
<style type="text/css">
	.st0{fill:#E8E8E8;}
	.st1{fill:#D6D6D6;}
	.st2{fill:#FAEC21;}
	.st3{fill:#E5D11F;}
	.st4{fill:#FFFFFF;}
	.st5{fill:#333333;}
</style>
<path class="st0" d="M404.6,121.1C390.8,59.3,338.3,13.8,275.2,8.8c-63.1-4.9-122,31.9-145.2,90.8C85.2,87,37.9,108.3,17.5,150.1
	C-2.8,192,9.8,242.3,47.4,269.7c37.6,27.4,89.4,23.8,123-8.4c50.9,43.8,125.3,46.4,179.1,6.4c27.5,17.5,62.8,16.6,89.4-2.3
	s39-52,31.4-83.7C462.8,150,436.8,126,404.6,121.1z"/>
<path class="st1" d="M392,120c-27.2,0-52.6,13.8-67.3,36.7c31.7-20.4,73.2-15.9,99.8,10.7c26.6,26.6,31.1,68.2,10.7,99.8
	c29.9-19.2,43.5-55.8,33.5-89.8C458.7,143.4,427.5,120,392,120z"/>
<path class="st1" d="M363.4,125.4c9.1-3.5,18.8-5.4,28.6-5.4c4.2,0,8.4,0.4,12.6,1.1c-12.2-55.3-55.8-98.3-111.2-109.9
	C237.9-0.3,180.8,21.7,147.5,67.5c35.1-25.5,79.9-33.7,121.8-22.5S345.8,85.7,363.4,125.4L363.4,125.4z"/>
<path class="st1" d="M88,128c30.1,0,58.4,14.1,76.5,38.1c18.1,24,24,55.1,15.8,84c23.6-30.7,26.4-72.6,7.2-106.2
	s-56.8-52.3-95.2-47.5S22,128.6,11.7,165.9C29.8,142.1,58,128,88,128z"/>
<path class="st2" d="M384,280c0,79.5-64.5,144-144,144c-79.5,0-144-64.5-144-144c0-79.5,64.5-144,144-144
	C319.5,136,384,200.5,384,280z"/>
<path class="st3" d="M264,376c-45.1,0-87.6-21.2-114.8-57.1c-27.2-36-36-82.6-23.7-126C90.1,239,85.9,301.8,114.8,352.2
	c28.9,50.4,85.2,78.5,142.9,71.3c57.6-7.2,105.3-48.4,120.8-104.3C351.3,354.9,308.9,375.9,264,376z"/>
<path class="st4" d="M280,217.8l-40,40l-39.6-40c-6.3-6.3-16.4-6.3-22.6,0c-6.3,6.3-6.3,16.4,0,22.6l40,40l-40,40
	c-6.3,6.3-6.3,16.4,0,22.6c6.3,6.3,16.4,6.3,22.6,0l39.6-40l40,40c6.4,6.1,16.5,6,22.6-0.4s6-16.5-0.4-22.6l-40-40l40-40
	c4.3-6.4,3.6-14.9-1.9-20.3C294.9,214.2,286.4,213.4,280,217.8z"/>
<path class="st0" d="M104,424c0,26.5-21.5,48-48,48c-26.5,0-48-21.5-48-48c0-26.5,21.5-48,48-48C82.5,376,104,397.5,104,424z"/>
<path class="st1" d="M72,456c-17.3,0-33.3-9.4-41.8-24.5C21.7,416.4,22,397.9,31,383C14,393.4,5.1,413.2,8.7,432.8
	s18.9,34.9,38.6,38.6C66.8,474.9,86.6,466,97,449C89.4,453.6,80.8,456,72,456z"/>
<g>
	<path class="st5" d="M314.9,229.1c0-6.4-2.5-12.5-7-17c-9.5-9-24.5-9-34,0l-33.9,34l-33.9-34c-9.5-9-24.5-9-34,0
		c-4.5,4.5-7.1,10.6-7.1,17c0,6.4,2.5,12.5,7.1,17L192,266c3.1,3.1,8.2,3.1,11.4,0s3.1-8.2,0-11.4l-19.9-19.9
		c-3.1-3.1-3.1-8.2,0-11.3c3.1-3.1,8.2-3.1,11.3,0l39.6,40c1.5,1.5,3.5,2.4,5.7,2.4s4.2-0.9,5.7-2.4l39.6-40c3.1-3.1,8.2-3.1,11.3,0
		c3.1,3.1,3.1,8.2,0,11.3l-40,39.6c-1.5,1.5-2.4,3.5-2.4,5.7s0.9,4.2,2.4,5.7l40,39.6c3.1,3.1,3.1,8.2,0,11.3
		c-3.1,3.1-8.2,3.1-11.3,0l-39.6-40c-1.5-1.5-3.5-2.4-5.7-2.4s-4.2,0.9-5.7,2.4l-39.6,40c-3.1,3.1-8.2,3.1-11.3,0
		c-3.1-3.1-3.1-8.2,0-11.3l39.6-39.6c3.1-3.1,3.1-8.2,0-11.4s-8.2-3.1-11.4,0l-39.6,40c-4.5,4.5-7.1,10.6-7.1,17s2.5,12.5,7.1,17
		c9.5,9,24.5,9,34,0l33.9-34.4l33.9,34c9.4,9.4,24.6,9.4,34,0c9.4-9.4,9.4-24.6,0-34l-34-33.9l34-33.9
		C312.4,241.6,314.9,235.5,314.9,229.1z"/>
	<path class="st5" d="M64,344v-32c0-4.4-3.6-8-8-8s-8,3.6-8,8v32c0,4.4,3.6,8,8,8S64,348.4,64,344z"/>
	<path class="st5" d="M56,368c-30.9,0-56,25.1-56,56c0,30.9,25.1,56,56,56c30.9,0,56-25.1,56-56C112,393.1,86.9,368,56,368z M56,464
		c-22.1,0-40-17.9-40-40c0-22.1,17.9-40,40-40s40,17.9,40,40C96,446.1,78.1,464,56,464z"/>
	<path class="st5" d="M440,376c0,4.4-3.6,8-8,8s-8-3.6-8-8s3.6-8,8-8S440,371.6,440,376z"/>
	<path class="st5" d="M440,344v-40c0-4.4-3.6-8-8-8s-8,3.6-8,8v40c0,4.4,3.6,8,8,8S440,348.4,440,344z"/>
	<path class="st5" d="M73,407c-3.1-3.1-8.2-3.1-11.3,0l-5.7,5.7l-5.7-5.7c-3.2-2.7-7.9-2.5-10.9,0.4c-3,3-3.1,7.7-0.4,10.9l5.7,5.7
		l-5.7,5.7c-3.1,3.1-3.1,8.2,0,11.3c3.1,3.1,8.2,3.1,11.3,0l5.7-5.7l5.7,5.7c3.1,3.1,8.2,3.1,11.3,0c3.1-3.1,3.1-8.2,0-11.3
		l-5.7-5.7l5.7-5.7C76.1,415.2,76.1,410.2,73,407z"/>
	<path class="st5" d="M449,402.3c-3.1-3.1-8.2-3.1-11.3,0L432,408l-5.7-5.7c-3.1-3.1-8.2-3.1-11.3,0c-1.5,1.5-2.4,3.5-2.4,5.7
		s0.9,4.2,2.4,5.7l5.7,5.6L415,425c-3.1,3.1-3.2,8.2,0,11.3c3.1,3.1,8.2,3.2,11.3,0l5.7-5.7l5.7,5.7c3.1,3.1,8.2,3.1,11.3,0
		c3.1-3.1,3.1-8.2,0-11.3l-5.7-5.7l5.7-5.6c1.5-1.5,2.4-3.5,2.4-5.7S450.5,403.8,449,402.3z"/>
	<path class="st5" d="M176,464h-48c-4.4,0-8,3.6-8,8s3.6,8,8,8h48c4.4,0,8-3.6,8-8S180.4,464,176,464z"/>
	<path class="st5" d="M240,448c-4.4,0-8,3.6-8,8v8h-16c-4.4,0-8,3.6-8,8s3.6,8,8,8h24c4.4,0,8-3.6,8-8v-16
		C248,451.6,244.4,448,240,448z"/>
	<path class="st5" d="M392,408h-32c-4.4,0-8,3.6-8,8s3.6,8,8,8h32c4.4,0,8-3.6,8-8S396.4,408,392,408z"/>
	<path class="st5" d="M411.2,114.2C393.6,47.2,333.3,0.3,264,0c-60.1-0.2-114.6,35.2-138.8,90.2c-7-1.5-14.1-2.3-21.2-2.2
		c-49,0.1-91.2,34.4-101.4,82.3s14.3,96.4,58.9,116.5c1,0.4,2.2,0.7,3.3,0.6c3.9,0.2,7.4-2.5,8.2-6.3c0.8-3.8-1.3-7.7-4.9-9.1
		c-41-19.5-60.4-66.9-44.9-109.6S84.1,96,128,107.4c4,1.2,8.2-0.9,9.7-4.8C157.8,50.3,208,15.9,264,16
		c63.7,0.3,118.8,44.6,132.8,106.8c0.7,3.2,3.3,5.6,6.6,6.2c34.9,5.6,60.6,35.7,60.6,71c0,31.8-20.9,59.8-51.4,69
		c-4.2,1.3-6.7,5.7-5.4,10c1.3,4.2,5.7,6.7,10,5.4c37.2-11.3,62.6-45.5,62.8-84.3C480.2,158.8,451.5,123,411.2,114.2z"/>
	<path class="st5" d="M355,367.1c3.6,2.4,8.6,1.5,11-2.2c45.2-66.5,30.8-156.7-32.9-205.8c-63.7-49.1-154.5-40.1-207.4,20.5
		c-52.8,60.6-49.4,151.9,7.9,208.2c57.3,56.4,148.6,58.4,208.3,4.6c3.3-3,3.5-8.1,0.5-11.3c-3-3.3-8.1-3.5-11.3-0.5
		c-53.4,47.8-134.9,45.8-185.8-4.7c-51-50.4-53.8-131.8-6.6-185.8s128.3-61.7,185-17.8s69.4,124.4,29,183.6c-1.2,1.8-1.6,3.9-1.2,6
		S353.2,365.9,355,367.1z"/>
</g>
</svg>
