<?xml version="1.0" encoding="utf-8"?>
<!-- Generator: Adobe Illustrator 23.0.1, SVG Export Plug-In . SVG Version: 6.00 Build 0)  -->
<svg version="1.1" id="Capa_1" xmlns="http://www.w3.org/2000/svg" xmlns:xlink="http://www.w3.org/1999/xlink" x="0px" y="0px"
	 viewBox="0 0 525.2 525.2" style="enable-background:new 0 0 525.2 525.2;" xml:space="preserve">
<style type="text/css">
	.st0{fill:#666666;}
</style>
<g>
	<path class="st0" d="M262.6,167.1c-52.8,0-95.5,42.7-95.5,95.5s42.7,95.5,95.5,95.5s95.5-42.7,95.5-95.5S315.3,167.1,262.6,167.1z
		 M476,238.7c-11-99.5-90-178.6-189.5-189.5V0h-47.7v49.2c-99.5,10.9-178.6,90-189.5,189.5H0v47.8h49.2
		c11,99.5,90,178.6,189.5,189.5v49.2h47.7V476C386,465,465,386,476,286.5h49.2v-47.8C525.2,238.7,476,238.7,476,238.7z M262.6,429.7
		c-92.4,0-167.1-74.7-167.1-167.1S170.2,95.5,262.6,95.5s167.1,74.7,167.1,167.1S355,429.7,262.6,429.7z"/>
</g>
</svg>
