<?xml version="1.0" encoding="utf-8"?>
<!-- Generator: Adobe Illustrator 23.0.1, SVG Export Plug-In . SVG Version: 6.00 Build 0)  -->
<svg version="1.1" id="Capa_1" xmlns="http://www.w3.org/2000/svg" xmlns:xlink="http://www.w3.org/1999/xlink" x="0px" y="0px"
	 viewBox="0 0 445.7 445.7" style="enable-background:new 0 0 445.7 445.7;" xml:space="preserve">
<style type="text/css">
	.st0{fill:#FFFFFF;}
</style>
<g id="Layer_8_56_">
	<path class="st0" d="M445.7,139.5c0,75.8-61.7,137.5-137.5,137.5v143.8c0,12.6-10.3,22.9-22.9,22.9H22.9
		C10.3,443.8,0,433.5,0,420.8V180.4c0-0.4,0.1-0.7,0.1-1v-39.9c0-4.9,6.3-8.8,14-8.8h25v-16.4c0-14.5,11.8-26.4,26.4-26.4
		c14.5,0,26.4,11.8,26.4,26.4v16.4h41.3v-16.4c0-14.5,11.8-26.4,26.4-26.4c7.2,0,13.6,3,18.3,7.6c18.4-54.3,69.8-93.6,130.3-93.6
		C384,1.9,445.7,63.6,445.7,139.5z M146.3,130.7H171c0.3-5.2,1-10.3,1.8-15.3v-1.1c0-7.3-5.9-13.3-13.2-13.3s-13.3,6-13.3,13.3
		V130.7L146.3,130.7z M52.2,130.7h26.5v-16.4c0-7.3-6-13.3-13.3-13.3s-13.3,6-13.3,13.3C52.2,114.3,52.2,130.7,52.2,130.7z
		 M288.5,275.6c-34.9-5-65.6-23.2-86.9-49.3H19.7v194.5c0,1.8,1.5,3.3,3.3,3.3h262.3c1.8,0,3.3-1.5,3.3-3.3L288.5,275.6L288.5,275.6
		z M423.3,139.5c0-63.5-51.7-115.1-115.1-115.1C244.7,24.4,193,76,193,139.5s51.6,115.1,115.1,115.1S423.3,203,423.3,139.5z
		 M387.1,84c-4-4.7-11.1-5.3-15.8-1.3l-64.4,54.9l-67.1-37.9c-5.4-3-12.2-1.1-15.3,4.3c-3,5.4-1.1,12.2,4.2,15.3l73.9,41.8
		c1.7,1,3.6,1.5,5.5,1.5c2.6,0,5.2-0.9,7.3-2.7l70.4-60C390.5,95.8,391.1,88.7,387.1,84z"/>
</g>
</svg>
