<?xml version="1.0" encoding="utf-8"?>
<!-- Generator: Adobe Illustrator 23.0.1, SVG Export Plug-In . SVG Version: 6.00 Build 0)  -->
<svg version="1.1" id="Capa_1" xmlns="http://www.w3.org/2000/svg" xmlns:xlink="http://www.w3.org/1999/xlink" x="0px" y="0px"
	 viewBox="0 0 16 16" style="enable-background:new 0 0 16 16;" xml:space="preserve">
<style type="text/css">
	.st0{fill:#FFFFFF;}
</style>
<g>
	<path class="st0" d="M14.2,9.7l-1.1,0.8v2.4H1.5V4.5h2.7l1.3-1.1H2C1.1,3.4,0.4,4.1,0.4,5v7.4C0.4,13.3,1.1,14,2,14h10.6
		c0.9,0,1.6-0.7,1.6-1.6C14.2,12.4,14.2,9.7,14.2,9.7z"/>
	<path class="st0" d="M4.8,9c1.7-1.4,3.7-2.5,6.8-2.4h0.5v1.5L16,5l-3.9-3.1v1.5h-0.5C8.6,3.4,5.4,5.7,4.8,9z"/>
</g>
</svg>
