<?xml version="1.0" encoding="utf-8"?>
<!-- Generator: Adobe Illustrator 23.0.1, SVG Export Plug-In . SVG Version: 6.00 Build 0)  -->
<svg version="1.1" id="Layer_1" xmlns="http://www.w3.org/2000/svg" xmlns:xlink="http://www.w3.org/1999/xlink" x="0px" y="0px"
	 viewBox="0 0 100 100" style="enable-background:new 0 0 100 100;" xml:space="preserve">
<style type="text/css">
	.st0{fill:#333333;}
</style>
<path class="st0" d="M92.35,14.06H78.07V3.96c0-1.36-1.1-2.46-2.45-2.46s-2.45,1.1-2.45,2.46v10.1H27.83V3.96
	c0-1.36-1.1-2.46-2.44-2.46c-1.37,0-2.45,1.08-2.45,2.46v10.1H8.65C4.99,14.06,2,17.04,2,20.71v71.14c0,3.67,2.99,6.65,6.65,6.65
	h83.7c3.67,0,6.65-2.98,6.65-6.65V20.71C99,17.04,96.02,14.06,92.35,14.06z M6.9,44.07h87.2l-0.01,46.66c0,1.82-0.29,2.88-1.74,2.88
	l-80.12-0.02c-5.04,0-5.33-0.1-5.33-1.74L6.9,44.07z M25.38,27.33c1.37,0,2.44-1.08,2.44-2.46v-5.91l45.35,0.01v5.91
	c0,1.36,1.1,2.46,2.45,2.46c1.37,0,2.45-1.08,2.45-2.46v-5.91l11.94,0c3.32,0,4.1,0.16,4.1,1.75v18.47l-87.21,0l0.01-17.23
	c0-1.94,0.28-2.99,1.74-2.99h14.28v5.91C22.93,26.22,24.03,27.33,25.38,27.33z"/>
</svg>
