<?xml version="1.0" encoding="utf-8"?>
<!-- Generator: Adobe Illustrator 23.0.1, SVG Export Plug-In . SVG Version: 6.00 Build 0)  -->
<svg version="1.1" id="Layer_1" xmlns="http://www.w3.org/2000/svg" xmlns:xlink="http://www.w3.org/1999/xlink" x="0px" y="0px"
	 viewBox="0 0 100 100" style="enable-background:new 0 0 100 100;" xml:space="preserve">
<style type="text/css">
	.st0{fill:#333333;stroke:#333333;stroke-miterlimit:10;}
</style>
<g>
	<path class="st0" d="M48.44,55.91c1,1.37,2.54,2.23,4.23,2.36c0.15,0.01,0.3,0.02,0.45,0.02c1.53,0,3-0.6,4.09-1.69
		c1.2-1.2,1.81-2.85,1.68-4.54c-0.13-1.69-0.99-3.23-2.37-4.23l-21-15.19c-0.64-0.46-1.53-0.39-2.1,0.17
		c-0.56,0.56-0.63,1.45-0.17,2.1L48.44,55.91z M54.61,50.46c0.6,0.44,0.98,1.11,1.04,1.86c0.06,0.74-0.21,1.47-0.74,1.99
		c-0.53,0.52-1.26,0.79-1.99,0.74c-0.74-0.06-1.42-0.44-1.85-1.03l-9.27-12.81L54.61,50.46z"/>
	<path class="st0" d="M50.78,1.5c-0.9,0-1.62,0.73-1.62,1.62v21.57c0,0.9,0.73,1.62,1.62,1.62c0.9,0,1.62-0.73,1.62-1.62V4.77
		c24.31,0.86,43.81,20.9,43.81,45.41c0,25.05-20.38,45.44-45.43,45.44c-25.05,0-45.43-20.38-45.43-45.44
		c0-12.11,4.71-23.49,13.25-32.07c0.63-0.64,0.63-1.66,0-2.29c-0.64-0.63-1.66-0.63-2.29,0C7.15,25.01,2.1,37.21,2.1,50.18
		c0,26.84,21.84,48.68,48.68,48.68c26.84,0,48.68-21.84,48.68-48.68C99.46,23.34,77.63,1.5,50.78,1.5z"/>
</g>
</svg>
