<?xml version="1.0" encoding="utf-8"?>
<!-- Generator: Adobe Illustrator 23.0.1, SVG Export Plug-In . SVG Version: 6.00 Build 0)  -->
<svg version="1.1" id="Layer_1" xmlns="http://www.w3.org/2000/svg" xmlns:xlink="http://www.w3.org/1999/xlink" x="0px" y="0px"
	 viewBox="0 0 100 100" style="enable-background:new 0 0 100 100;" xml:space="preserve">
<style type="text/css">
	.st0{fill:#333333;}
</style>
<g>
	<path class="st0" d="M25.09,40.78c-1.05,0-1.9,0.85-1.9,1.9c0,1.05,0.85,1.9,1.9,1.9h40.46c1.05,0,1.9-0.85,1.9-1.9
		c0-1.05-0.85-1.9-1.9-1.9H25.09z"/>
	<path class="st0" d="M49.66,56.49H25.09c-1.05,0-1.9,0.85-1.9,1.9c0,1.05,0.85,1.9,1.9,1.9h24.57c1.05,0,1.9-0.85,1.9-1.9
		C51.56,57.34,50.71,56.49,49.66,56.49z"/>
	<path class="st0" d="M81.26,41.24c1.05,0,1.9-0.85,1.9-1.9V15.18c0-7.54-6.14-13.68-13.68-13.68H21.19
		C13.64,1.5,7.5,7.64,7.5,15.18v69.13C7.5,91.86,13.64,98,21.19,98h13.14c1.05,0,1.9-0.85,1.9-1.9c0-1.05-0.85-1.9-1.9-1.9H21.19
		c-5.45,0-9.88-4.43-9.88-9.88V15.18c0-5.45,4.43-9.88,9.88-9.88h48.29c5.45,0,9.89,4.43,9.89,9.88v24.16
		C79.36,40.39,80.22,41.24,81.26,41.24z"/>
	<path class="st0" d="M52.51,97.93l15.85-4.39c0.31-0.09,0.6-0.25,0.84-0.49l21.52-21.48c3.8-3.8,3.8-9.99,0-13.8
		c-1.9-1.9-4.4-2.85-6.9-2.85c-2.5,0-4.99,0.95-6.89,2.85L55.35,79.29c-0.22,0.22-0.39,0.49-0.48,0.79l-4.7,15.46
		c-0.2,0.66-0.03,1.38,0.46,1.88C51.11,97.91,51.85,98.12,52.51,97.93z M79.61,60.46c2.32-2.32,6.1-2.32,8.42,0
		c2.32,2.32,2.32,6.1,0,8.42l0,0l-2.2,2.19l-8.42-8.42L79.61,60.46z M58.37,81.65l16.35-16.31l8.43,8.42L66.86,90.01l-12.05,3.34
		L58.37,81.65z"/>
	<path class="st0" d="M25.09,25.07c-1.05,0-1.9,0.85-1.9,1.9s0.85,1.9,1.9,1.9h40.46c1.05,0,1.9-0.85,1.9-1.9s-0.85-1.9-1.9-1.9
		H25.09z"/>
</g>
</svg>
