<?xml version="1.0" encoding="utf-8"?>
<!-- Generator: Adobe Illustrator 23.0.1, SVG Export Plug-In . SVG Version: 6.00 Build 0)  -->
<svg version="1.1" id="Layer_1" xmlns="http://www.w3.org/2000/svg" xmlns:xlink="http://www.w3.org/1999/xlink" x="0px" y="0px"
	 viewBox="0 0 100 100" style="enable-background:new 0 0 100 100;" xml:space="preserve">
<style type="text/css">
	.st0{fill:#333333;}
</style>
<g>
	<path class="st0" d="M62.63,4.74H11.38c-4.9,0-8.88,4.03-8.88,8.98v74.8c0,4.95,3.98,8.98,8.88,8.98h74.03
		c4.9,0,8.88-4.03,8.88-8.98V36.26c0-0.72-0.28-1.39-0.78-1.89c-0.5-0.5-1.15-0.77-1.85-0.77c-1.45,0-2.63,1.19-2.63,2.66v52.25
		c0,2.02-1.63,3.66-3.63,3.66H11.38c-2,0-3.63-1.64-3.63-3.66v-74.8c0-2.02,1.63-3.66,3.63-3.66h51.25c1.45,0,2.63-1.19,2.63-2.66
		C65.25,5.93,64.07,4.74,62.63,4.74z"/>
	<path class="st0" d="M97.51,2.08c-0.54-0.44-1.22-0.64-1.92-0.57c-0.7,0.08-1.33,0.42-1.77,0.98l-50.3,63.29L26.79,44.73
		c-0.44-0.55-1.07-0.9-1.77-0.98c-0.09-0.01-0.19-0.02-0.28-0.02c-0.59,0-1.17,0.2-1.64,0.58c-1.13,0.92-1.31,2.6-0.4,3.74
		l18.08,22.75c0.5,0.88,1.36,1.38,2.29,1.38c0.09,0,0.18-0.02,0.27-0.04l0.24-0.04l0.07,0.01c0.07,0.01,0.15,0.03,0.22,0.05
		c0.92,0.01,1.68-0.4,2.19-1.09L97.92,5.83C98.83,4.68,98.65,3,97.51,2.08z"/>
</g>
</svg>
