<?xml version="1.0" encoding="utf-8"?>
<!-- Generator: Adobe Illustrator 23.0.1, SVG Export Plug-In . SVG Version: 6.00 Build 0)  -->
<svg version="1.1" id="Layer_1" xmlns="http://www.w3.org/2000/svg" xmlns:xlink="http://www.w3.org/1999/xlink" x="0px" y="0px"
	 viewBox="0 0 100 100" style="enable-background:new 0 0 100 100;" xml:space="preserve">
<style type="text/css">
	.st0{fill:#333333;}
</style>
<g>
	<path class="st0" d="M88.42,10.16H78.8V6.49c0-1.07-0.88-1.95-1.95-1.95c-1.07,0-1.95,0.88-1.95,1.95v3.67H42.07V6.49
		c0-1.07-0.88-1.95-1.95-1.95c-1.07,0-1.95,0.88-1.95,1.95v3.67H27.9c-5.84,0-10.57,4.74-10.58,10.58v32.41
		c0,1.07,0.88,1.94,1.95,1.94s1.94-0.87,1.94-1.94V40.41h73.9v43c-0.01,3.7-3,6.7-6.7,6.7h-60.5c-3.7,0-6.7-3-6.7-6.7V72.17
		c0-1.07-0.87-1.95-1.94-1.95c-1.07,0-1.95,0.88-1.95,1.95v11.23c0,5.85,4.74,10.58,10.58,10.59h60.5C94.26,93.99,99,89.25,99,83.42
		V20.75C98.99,14.9,94.25,10.16,88.42,10.16z M21.21,36.52V20.75c0.01-3.7,3-6.7,6.7-6.7h10.26v5.28c-2.93,0.96-4.73,3.9-4.25,6.94
		c0.48,3.04,3.11,5.28,6.19,5.28c3.08,0,5.71-2.24,6.19-5.28c0.48-3.04-1.32-5.99-4.25-6.94v-5.28h32.85v5.28
		c-2.93,0.96-4.73,3.9-4.25,6.94c0.48,3.04,3.11,5.28,6.19,5.28s5.71-2.24,6.19-5.28s-1.32-5.99-4.25-6.94v-5.28h9.61
		c3.7,0,6.7,3,6.7,6.7v15.77H21.21z M40.12,22.91c1.31,0,2.37,1.06,2.37,2.37c0,1.31-1.06,2.37-2.37,2.37s-2.37-1.06-2.37-2.37
		S38.81,22.91,40.12,22.91z M76.85,22.91c1.31,0,2.37,1.06,2.37,2.37c0,1.31-1.06,2.37-2.37,2.37c-1.31,0-2.37-1.06-2.37-2.37
		C74.48,23.98,75.54,22.91,76.85,22.91z"/>
	<path class="st0" d="M13.59,53.88c0.76-0.76,0.76-1.99,0-2.75c-0.76-0.76-1.99-0.76-2.75,0L0.68,61.3c-0.76,0.76-0.76,1.99,0,2.75
		L10.84,74.2c0.76,0.76,1.99,0.76,2.75,0c0.76-0.76,0.76-1.99,0-2.75l-6.84-6.84h38.31c1.07,0,1.95-0.87,1.95-1.94
		c0-1.07-0.88-1.95-1.95-1.95H6.75L13.59,53.88z"/>
</g>
</svg>
