<?xml version="1.0" encoding="utf-8"?>
<!-- Generator: Adobe Illustrator 23.0.1, SVG Export Plug-In . SVG Version: 6.00 Build 0)  -->
<svg version="1.1" id="Layer_1" xmlns="http://www.w3.org/2000/svg" xmlns:xlink="http://www.w3.org/1999/xlink" x="0px" y="0px"
	 viewBox="0 0 100 100" style="enable-background:new 0 0 100 100;" xml:space="preserve">
<style type="text/css">
	.st0{fill:#333333;}
</style>
<path class="st0" d="M52.49,65.65c2.68,0,4.85-2.17,4.85-4.85s-2.17-4.85-4.85-4.85c-2.68,0-4.85,2.17-4.85,4.85
	C47.65,63.48,49.82,65.65,52.49,65.65z M52.49,59.59c0.67,0,1.21,0.54,1.21,1.21s-0.54,1.21-1.21,1.21s-1.21-0.54-1.21-1.21
	C51.28,60.13,51.83,59.59,52.49,59.59z"/>
<g>
	<path class="st0" d="M74.78,25.58c-0.26-0.48-0.71-0.81-1.24-0.92c-0.13-0.03-0.27-0.04-0.4-0.04H33.02c-1,0-1.82,0.81-1.82,1.82
		v16.54c0,1,0.81,1.82,1.82,1.82s1.82-0.81,1.82-1.82V28.26h25.92l-17.45,5.23c-0.77,0.23-1.3,0.94-1.3,1.74v51.34h-7.17V72.5
		c0-1.01-0.81-1.82-1.82-1.82c-1,0-1.82,0.81-1.82,1.82v15.89c0,1.01,0.81,1.82,1.82,1.82h8.99v6.97c0,0.57,0.27,1.12,0.73,1.46
		s1.06,0.45,1.61,0.28l29.35-8.79c0.77-0.23,1.3-0.94,1.3-1.74v-61.9C75.01,26.17,74.93,25.86,74.78,25.58z M71.36,87.04l-25.71,7.7
		V36.58l25.71-7.7V87.04z"/>
	<path class="st0" d="M54.11,20.91c4.54,0,8.47-3.15,9.46-7.57c1-4.43-1.21-8.95-5.31-10.9s-9-0.79-11.79,2.79
		c-2.96,3.78-2.71,9.15,0.59,12.64C48.89,19.81,51.44,20.9,54.11,20.91z M49.02,7.22c1.95-2.49,5.41-3.21,8.18-1.7
		c2.78,1.51,4.05,4.8,3.02,7.79s-4.07,4.79-7.18,4.27c-3.12-0.52-5.4-3.22-5.4-6.38C47.64,9.76,48.13,8.36,49.02,7.22z"/>
	<path class="st0" d="M52.52,13.28l2.25,1.44c0.75,0.47,1.74,0.25,2.22-0.5s0.27-1.74-0.47-2.22l-1.51-0.96v-3.6
		c0-0.89-0.72-1.62-1.62-1.62c-0.89,0-1.62,0.72-1.62,1.62v4.48C51.77,12.47,52.05,12.98,52.52,13.28z"/>
</g>
<path class="st0" d="M10.78,58.64l8.29,8.29c0.71,0.71,1.86,0.71,2.57,0s0.71-1.86,0-2.57l-5.18-5.18h21.68c1,0,1.82-0.81,1.82-1.82
	c0-1-0.81-1.82-1.82-1.82H16.46l5.18-5.18c0.71-0.71,0.71-1.86,0-2.57s-1.86-0.71-2.57,0l-8.29,8.29
	C10.07,56.78,10.07,57.93,10.78,58.64z"/>
</svg>
