<?xml version="1.0" encoding="utf-8"?>
<!-- Generator: Adobe Illustrator 23.0.1, SVG Export Plug-In . SVG Version: 6.00 Build 0)  -->
<svg version="1.1" id="Layer_1" xmlns="http://www.w3.org/2000/svg" xmlns:xlink="http://www.w3.org/1999/xlink" x="0px" y="0px"
	 viewBox="0 0 100 100" style="enable-background:new 0 0 100 100;" xml:space="preserve">
<style type="text/css">
	.st0{fill:#FFFFFF;}
</style>
<path class="st0" d="M91.48,15.26H77.47V5.35c0-1.33-1.08-2.41-2.4-2.41s-2.4,1.08-2.4,2.41v9.91H28.18V5.35
	c0-1.33-1.08-2.41-2.4-2.41c-1.35,0-2.4,1.06-2.4,2.41v9.91H9.37c-3.6,0-6.53,2.93-6.53,6.53v69.79c0,3.6,2.93,6.52,6.53,6.52h82.11
	c3.6,0,6.52-2.93,6.52-6.52v-69.8C98,18.18,95.07,15.26,91.48,15.26z M7.65,44.7H93.2l-0.01,45.77c0,1.79-0.28,2.82-1.71,2.82
	l-78.6-0.02c-4.94,0-5.23-0.1-5.23-1.71L7.65,44.7z M25.78,28.27c1.34,0,2.4-1.06,2.4-2.41v-5.8l44.49,0.01v5.79
	c0,1.33,1.08,2.41,2.4,2.41c1.35,0,2.4-1.06,2.4-2.41v-5.79h11.71c3.26,0,4.02,0.16,4.02,1.71V39.9H7.65L7.66,23
	c0-1.9,0.28-2.94,1.71-2.94h14.01v5.8C23.38,27.19,24.46,28.27,25.78,28.27z"/>
</svg>
