<?xml version="1.0" encoding="utf-8"?>
<!-- Generator: Adobe Illustrator 23.0.1, SVG Export Plug-In . SVG Version: 6.00 Build 0)  -->
<svg version="1.1" id="Layer_1" xmlns="http://www.w3.org/2000/svg" xmlns:xlink="http://www.w3.org/1999/xlink" x="0px" y="0px"
	 viewBox="0 0 100 100" style="enable-background:new 0 0 100 100;" xml:space="preserve">
<style type="text/css">
	.st0{fill:#FFFFFF;}
</style>
<g>
	<path class="st0" d="M25.86,41.69c-1.36,0-2.47,1.11-2.47,2.47s1.11,2.47,2.47,2.47h39.67c1.36,0,2.47-1.11,2.47-2.47
		s-1.11-2.47-2.47-2.47H25.86z"/>
	<path class="st0" d="M49.95,57.09H25.86c-1.36,0-2.47,1.11-2.47,2.47s1.11,2.47,2.47,2.47h24.09c1.36,0,2.47-1.11,2.47-2.47
		C52.42,58.2,51.31,57.09,49.95,57.09z"/>
	<path class="st0" d="M69.38,3.17H22.03C14.3,3.17,8.01,9.46,8.01,17.2v67.78C8.01,92.71,14.3,99,22.03,99h12.88
		c1.36,0,2.47-1.11,2.47-2.47s-1.11-2.47-2.47-2.47H22.03c-5.01,0-9.09-4.08-9.09-9.09V17.2c0-5.01,4.08-9.09,9.09-9.09h47.35
		c5.01,0,9.09,4.08,9.09,9.09v23.69c0,1.36,1.11,2.47,2.47,2.47s2.47-1.11,2.47-2.47V17.2C83.4,9.46,77.11,3.17,69.38,3.17z"/>
	<path class="st0" d="M52.9,98.91l15.54-4.31c0.41-0.11,0.78-0.33,1.08-0.63l21.1-21.06c3.96-3.96,3.96-10.42,0-14.38
		c-1.98-1.98-4.59-2.97-7.19-2.97s-5.21,0.99-7.19,2.97L55.1,79.63c-0.29,0.29-0.5,0.64-0.62,1.03l-4.6,15.16
		c-0.26,0.86-0.03,1.8,0.59,2.44C51.09,98.89,52.03,99.15,52.9,98.91z M79.74,62.02c1.97-1.97,5.43-1.97,7.4,0
		c2.04,2.04,2.04,5.36,0,7.4l0,0l-1.73,1.72l-7.4-7.4L79.74,62.02z M59.03,82.68l15.49-15.46l7.4,7.4L66.5,90.02l-10.6,2.93
		L59.03,82.68z"/>
	<path class="st0" d="M25.86,26.28c-1.36,0-2.47,1.11-2.47,2.47c0,1.36,1.11,2.47,2.47,2.47h39.67c1.36,0,2.47-1.11,2.47-2.47
		c0-1.36-1.11-2.47-2.47-2.47H25.86z"/>
</g>
</svg>
