<?xml version="1.0" encoding="utf-8"?>
<!-- Generator: Adobe Illustrator 23.0.1, SVG Export Plug-In . SVG Version: 6.00 Build 0)  -->
<svg version="1.1" id="Layer_1" xmlns="http://www.w3.org/2000/svg" xmlns:xlink="http://www.w3.org/1999/xlink" x="0px" y="0px"
	 viewBox="0 0 100 100" style="enable-background:new 0 0 100 100;" xml:space="preserve">
<style type="text/css">
	.st0{fill:#FFFFFF;}
</style>
<g>
	<path class="st0" d="M61.23,2.51C60.9,2.19,60.45,2,60,2H14.8c-0.96,0-1.74,0.78-1.74,1.74v92.52c0,0.96,0.78,1.74,1.74,1.74h71
		c0.96,0,1.74-0.78,1.74-1.74V29.57c0-0.48-0.17-0.91-0.49-1.23L61.23,2.51z M61.74,26.34V11.53V7.94l2.54,2.54l7.4,7.4l7.4,7.4
		l2.54,2.54h-3.59h-14.8h-1.49C61.74,27.82,61.74,26.34,61.74,26.34z M84.08,32.8v60.23v1.49H82.6H18.03h-1.49v-1.49V6.97V5.48h1.49
		h38.72h1.49v1.49v22.6c0,0.96,0.78,1.74,1.74,1.74H82.6h1.49L84.08,32.8L84.08,32.8z"/>
	<g>
		<path class="st0" d="M26.56,54.5h-3.73V40.53h8.27v3.03h-4.54v2.67h4.19v3.03h-4.19C26.56,49.26,26.56,54.5,26.56,54.5z"/>
		<path class="st0" d="M46.49,47.49c0,2.36-0.58,4.14-1.74,5.37c-1.16,1.22-2.84,1.84-5.06,1.84c-2.2,0-3.89-0.62-5.05-1.86
			c-1.18-1.24-1.76-3.02-1.76-5.37c0-2.32,0.58-4.1,1.74-5.34s2.86-1.84,5.08-1.84s3.9,0.62,5.06,1.84
			C45.91,43.35,46.49,45.13,46.49,47.49z M36.86,47.49c0,2.71,0.95,4.06,2.82,4.06c0.95,0,1.66-0.33,2.13-0.99
			c0.46-0.66,0.7-1.68,0.7-3.07s-0.23-2.44-0.7-3.09c-0.46-0.66-1.16-1.01-2.11-1.01C37.81,43.41,36.86,44.76,36.86,47.49z"/>
		<path class="st0" d="M52.79,49.42v5.08h-3.77V40.53h4.58c3.81,0,5.7,1.37,5.7,4.14c0,1.62-0.79,2.88-2.38,3.77L61,54.52h-4.29
			l-2.98-5.1C53.73,49.42,52.79,49.42,52.79,49.42z M52.79,46.58h0.72c1.31,0,1.97-0.58,1.97-1.76c0-0.97-0.64-1.45-1.93-1.45H52.8
			L52.79,46.58L52.79,46.58z"/>
		<path class="st0" d="M68.37,54.5l-2.86-10.07h-0.08c0.14,1.72,0.19,3.05,0.19,4v6.07h-3.34V40.53h5.03l2.92,9.94h0.08l2.86-9.94
			h5.05v14h-3.48V48.4c0-0.31,0-0.68,0.02-1.06c0-0.39,0.06-1.33,0.14-2.86h-0.08L72,54.53h-3.61V54.5H68.37z"/>
	</g>
	<path class="st0" d="M37.84,69.12l0.72-0.91l-0.06,1.16c-0.07,1.3-0.1,2.57-0.1,3.89v11.36h5.35V63.19h-4.89l-7.23,5.89l2.64,3.25
		l2.22-1.83C37.09,69.97,37.52,69.53,37.84,69.12z"/>
	<path class="st0" d="M54.49,64.19c-1.63,0.86-2.89,2.23-3.74,4.06c-0.86,1.86-1.3,4.34-1.3,7.36c0,2.97,0.71,5.26,2.11,6.83
		c1.41,1.61,3.38,2.43,5.87,2.43c2.39,0,4.19-0.65,5.5-1.99c1.3-1.34,1.96-3.19,1.96-5.5c0-2.16-0.52-3.86-1.53-5.06
		c-1.01-1.17-2.46-1.76-4.3-1.76c-1.89,0-3.22,0.78-4.06,2.37l-0.1,0.2h-0.8l0.02-0.39c0.1-2.11,0.69-3.65,1.73-4.57
		c1.04-0.93,2.62-1.41,4.71-1.41c1.03,0,2.01,0.07,2.91,0.22v-3.91c-1.01-0.14-1.94-0.2-2.78-0.2
		C58.25,62.86,56.16,63.31,54.49,64.19z M55.39,75.27c0.53-0.55,1.17-0.82,1.96-0.82c1.12,0,2.46,0.53,2.46,3.08
		c0,1.16-0.23,1.99-0.69,2.54c-0.45,0.56-1.07,0.85-1.83,0.85c-0.8,0-1.45-0.37-1.95-1.09c-0.46-0.72-0.68-1.59-0.68-2.61
		C54.66,76.46,54.91,75.8,55.39,75.27z"/>
</g>
</svg>
