<?xml version="1.0" encoding="utf-8"?>
<!-- Generator: Adobe Illustrator 23.0.1, SVG Export Plug-In . SVG Version: 6.00 Build 0)  -->
<svg version="1.1" id="Layer_1" xmlns="http://www.w3.org/2000/svg" xmlns:xlink="http://www.w3.org/1999/xlink" x="0px" y="0px"
	 viewBox="0 0 100 100" style="enable-background:new 0 0 100 100;" xml:space="preserve">
<style type="text/css">
	.st0{fill:#FFFFFF;}
</style>
<path class="st0" d="M94.76,5.96c-4.32-4.31-11.34-4.32-15.66,0L60.61,24.44L23.8,11.61c-0.24-0.08-0.49-0.12-0.74-0.12
	c-0.6,0-1.2,0.24-1.64,0.68L10.77,22.82c-0.88,0.89-0.87,2.35,0.03,3.23c0.13,0.13,0.3,0.26,0.47,0.36l31.14,18.02L23.82,63.01
	L9.59,63.85c-0.56,0.03-1.08,0.27-1.48,0.68l-5.33,5.33C1.9,70.75,1.91,72.2,2.8,73.09c0.15,0.15,0.31,0.27,0.49,0.37l15.43,8.55
	l8.55,15.43c0.3,0.53,0.79,0.91,1.37,1.08c0.59,0.17,1.21,0.09,1.74-0.21c0.19-0.11,0.35-0.23,0.48-0.36l5.33-5.33
	c0.4-0.4,0.64-0.93,0.68-1.49l0.84-14.22l18.59-18.6l18.01,31.14c0.63,1.1,2.03,1.48,3.13,0.85c0.17-0.1,0.32-0.22,0.46-0.36
	L88.54,79.3c0.63-0.62,0.85-1.56,0.56-2.39l-12.82-36.8l18.49-18.49C99.08,17.3,99.08,10.28,94.76,5.96z M91.52,18.38L72,37.91
	c-0.61,0.61-0.82,1.54-0.54,2.36L84.3,77.08l-7.53,7.53L58.75,53.46c-0.63-1.1-2.04-1.48-3.13-0.85c-0.17,0.1-0.34,0.23-0.48,0.37
	l-21.3,21.3c-0.38,0.39-0.62,0.91-0.65,1.46l-0.84,14.23l-2.55,2.56L22.38,79.2c-0.21-0.37-0.51-0.67-0.87-0.87l-13.32-7.4
	l2.56-2.56l14.23-0.84c0.55-0.03,1.07-0.27,1.46-0.66l21.29-21.29c0.9-0.89,0.9-2.35,0.01-3.25c-0.14-0.14-0.3-0.27-0.48-0.37
	L16.12,23.95l7.53-7.53l36.82,12.84c0.83,0.29,1.73,0.08,2.36-0.54L82.34,9.2c1.25-1.25,2.9-1.96,4.67-1.89
	c1.69,0.03,3.33,0.72,4.51,1.89l0,0C94.05,11.73,94.05,15.85,91.52,18.38z"/>
</svg>
