<?xml version="1.0" encoding="utf-8"?>
<!-- Generator: Adobe Illustrator 23.0.1, SVG Export Plug-In . SVG Version: 6.00 Build 0)  -->
<svg version="1.1" id="Layer_1" xmlns="http://www.w3.org/2000/svg" xmlns:xlink="http://www.w3.org/1999/xlink" x="0px" y="0px"
	 viewBox="0 0 100 100" style="enable-background:new 0 0 100 100;" xml:space="preserve">
<style type="text/css">
	.st0{fill:#FFFFFF;}
</style>
<g>
	<polygon class="st0" points="56.79,16.54 52.17,16.54 52.17,11.92 47.35,11.92 47.35,16.54 42.73,16.54 42.73,21.36 47.35,21.36 
		47.35,25.98 52.17,25.98 52.17,21.36 56.79,21.36 	"/>
	<rect x="41.94" y="32.43" class="st0" width="4.63" height="4.63"/>
	<rect x="19.27" y="50.93" class="st0" width="4.63" height="4.63"/>
	<rect x="19.27" y="61" class="st0" width="4.63" height="4.63"/>
	<rect x="19.27" y="71.08" class="st0" width="4.63" height="4.63"/>
	<rect x="75.88" y="50.93" class="st0" width="4.63" height="4.63"/>
	<rect x="75.88" y="61" class="st0" width="4.63" height="4.63"/>
	<rect x="75.88" y="71.08" class="st0" width="4.63" height="4.63"/>
	<rect x="52.95" y="32.43" class="st0" width="4.63" height="4.63"/>
	<rect x="41.94" y="42.6" class="st0" width="4.63" height="4.63"/>
	<rect x="52.95" y="42.6" class="st0" width="4.63" height="4.63"/>
	<rect x="41.94" y="52.77" class="st0" width="4.63" height="4.63"/>
	<rect x="52.95" y="52.77" class="st0" width="4.63" height="4.63"/>
	<path class="st0" d="M91.84,81.9l-0.41-0.08V39.38H69.73V0.5H29.79v38.88H8.08v42.44L7.67,81.9c-4.15,0.8-7.16,4.44-7.16,8.67V99
		h98.5v-8.44C99.01,86.34,96,82.69,91.84,81.9z M12.91,81.73V44.21h16.88v37.53H12.91z M5.34,94.17v-3.61c0-2.21,1.79-4,4-4h80.84
		c2.21,0,4,1.79,4,4v3.61H5.34z M86.61,44.21v37.53H69.73V44.21H86.61z M53.31,68.55v13.18h-7.09V68.55H53.31z M41.38,63.73v18.01
		h-6.77V5.33H64.9v76.41h-6.77V63.73H41.38z"/>
</g>
</svg>
