<?xml version="1.0" encoding="utf-8"?>
<!-- Generator: Adobe Illustrator 23.0.1, SVG Export Plug-In . SVG Version: 6.00 Build 0)  -->
<svg version="1.1" id="Layer_1" xmlns="http://www.w3.org/2000/svg" xmlns:xlink="http://www.w3.org/1999/xlink" x="0px" y="0px"
	 viewBox="0 0 100 100" style="enable-background:new 0 0 100 100;" xml:space="preserve">
<style type="text/css">
	.st0{fill:#FFFFFF;}
</style>
<path class="st0" d="M54.01,99c-2.81,0-5.61,0-8.42,0c-0.42-0.11-0.84-0.28-1.27-0.33c-19.9-2.29-36.28-16.2-41.66-35.51
	c-0.82-2.93-1.25-5.97-1.86-8.95c0-2.81,0-5.61,0-8.42c0.12-0.49,0.28-0.97,0.34-1.46C3.57,24.43,17.33,8.3,36.65,2.86
	c2.92-0.82,5.96-1.25,8.94-1.86c2.81,0,5.61,0,8.42,0c0.42,0.11,0.84,0.28,1.27,0.33c19.9,2.29,36.27,16.19,41.66,35.52
	c0.82,2.93,1.25,5.96,1.86,8.94c0,2.81,0,5.61,0,8.42c-0.11,0.43-0.27,0.85-0.33,1.28C96.04,75.67,82.13,91.91,62.6,97.27
	C59.79,98.04,56.88,98.43,54.01,99z M49.75,92.87c23.8-0.08,42.97-19.26,42.92-42.97C92.63,26.23,73.3,7.04,49.57,7.13
	C26,7.21,6.86,26.55,6.93,50.19C7,73.68,26.34,92.95,49.75,92.87z"/>
<path class="st0" d="M45.56,45.94c3.21,0,6.32,0,9.52,0c0,10.24,0,20.39,0,30.69c-3.11,0-6.26,0-9.52,0
	C45.56,66.5,45.56,56.3,45.56,45.94z"/>
<path class="st0" d="M55.61,30.42c-0.02,2.9-2.39,5.27-5.29,5.28c-2.96,0.01-5.37-2.45-5.32-5.41c0.06-2.89,2.47-5.23,5.37-5.19
	C53.27,25.13,55.62,27.52,55.61,30.42z"/>
</svg>
