<?xml version="1.0" encoding="utf-8"?>
<!-- Generator: Adobe Illustrator 23.0.1, SVG Export Plug-In . SVG Version: 6.00 Build 0)  -->
<svg version="1.1" id="Layer_1" xmlns="http://www.w3.org/2000/svg" xmlns:xlink="http://www.w3.org/1999/xlink" x="0px" y="0px"
	 viewBox="0 0 100 100" style="enable-background:new 0 0 100 100;" xml:space="preserve">
<style type="text/css">
	.st0{display:none;}
	.st1{display:inline;}
	.st2{fill:#FFFFFF;}
</style>
<g class="st0">
	<path class="st1" d="M72.09,66.58c0.2,0.08,0.39,0.12,0.57,0.12c0.45,0,0.89-0.24,1.43-0.78c5.22-5.23,10.45-10.46,15.67-15.68
		l9.42-9.42c1.09-1.09,1.1-1.81,0.03-2.88l-7.99-7.99c-5.73-5.72-11.45-11.45-17.17-17.18c-0.51-0.51-0.95-0.74-1.4-0.74
		c-0.19,0-0.39,0.04-0.6,0.12c-0.68,0.27-0.96,0.8-0.95,1.84c0.02,2.6,0.02,5.19,0.01,7.79v3v0.76v0.45v0.65h-0.65H69.9h-0.43h-0.59
		h-3.43h-1.03h-1.03c-4.14,0-8.27,0-12.41-0.01c-1,0-1.52,0.22-1.87,0.78c-0.3,0.48-0.32,1.02-0.07,1.49
		c0.29,0.54,0.89,0.86,1.59,0.87c1.04,0.01,2.09,0.02,3.13,0.02c0.8,0,1.61,0,2.41,0c0.81,0,1.61,0,2.42,0h4.01h4.12
		c1.86,0,3.72,0,5.58-0.01c1.32,0,1.86-0.55,1.89-1.87c0-0.3,0-0.59,0-0.89v-0.5v-5.37v-1.83v-1.58l1.12,1.11l19.98,19.96l0.46,0.46
		l-0.46,0.46l-20,19.97l-1.12,1.12v-1.58v-2.33c0-1.92,0-3.93,0-5.93c0-1.56-0.44-2-2.04-2.01c-0.48,0-0.95,0-1.42,0h-1.16h-1.14
		h-0.56l-0.08-0.55c-1.31-8.55-8.06-14.84-16.42-15.3c-0.34-0.02-0.69-0.03-1.03-0.03c-3.29,0-6.37,0.9-9.15,2.69
		c-4.49,2.88-7.21,7.12-8.07,12.6l-0.09,0.55h-0.56h-2.06h-0.65v-0.65v-3.34c0-2.88-0.01-5.71,0.01-8.54
		c0.01-1.13-0.25-1.65-0.97-1.94c-0.21-0.09-0.41-0.13-0.6-0.13c-0.46,0-0.9,0.25-1.48,0.83C21.04,40.82,15.36,46.5,9.68,52.18
		L1.7,60.16c-1.14,1.14-1.14,1.83-0.02,2.95l6.4,6.4c6.23,6.23,12.47,12.47,18.69,18.71c0.52,0.53,0.98,0.77,1.44,0.77
		c0.2,0,0.41-0.05,0.64-0.14c0.66-0.28,0.92-0.81,0.91-1.88c-0.02-2.6-0.01-5.2-0.01-7.79v-3v-0.73v-0.4V74.4h0.65h0.52h0.4h0.39
		h1.96h3.03h3.03c3.44,0,6.88,0,10.32-0.01c0.67,0,1.2-0.18,1.53-0.51c0.26-0.27,0.39-0.64,0.38-1.09c-0.02-1.33-1.2-1.53-1.89-1.53
		c-3.61,0-7.21-0.01-10.82-0.01c-3.58,0-7.17,0-10.75,0.01c-1.25,0-1.81,0.56-1.82,1.81c-0.01,1.06-0.01,2.12,0,3.18v1.45v2.86v1.19
		v1.58l-1.12-1.11L5.47,62.14l-0.46-0.46l0.46-0.46l8.68-8.68l11.39-11.4l1.12-1.12v1.58v0.22v0.62v2.33c0,1.85,0,3.69,0.01,5.54
		c0.01,1.2,0.55,1.73,1.76,1.75c0.51,0.01,1.02,0.01,1.53,0.01h1.22h1.21h0.56l0.09,0.55c1.6,10.05,9.96,15.33,17.39,15.33
		c7.42-0.02,15.74-5.28,17.37-15.29l0.09-0.55h0.56h1.99h0.65v0.65v0.4v0.72v3.01c0,2.59,0.01,5.19-0.01,7.78
		C71.08,65.78,71.35,66.29,72.09,66.58z M50.46,64.79L50.46,64.79h-0.04c-7.86,0-14.26-6.34-14.28-14.14
		c-0.02-8.07,6.29-14.41,14.35-14.43c7.85,0,14.2,6.39,14.22,14.24C64.72,58.34,58.33,64.76,50.46,64.79z"/>
	<path class="st1" d="M49.89,39.11c-0.87,0-1.52,0.65-1.53,1.55c-0.02,1.22-0.72,1.57-1.45,1.83c-1.82,0.65-2.98,2.24-3.03,4.14
		c-0.06,2.35,1.44,4.19,4.03,4.92l0.26,0.07c1.18,0.33,2.4,0.67,3.58,1.08c0.46,0.16,1.1,0.79,1.05,1.42
		c-0.04,0.53-0.45,1.14-0.95,1.41c-0.45,0.24-1.03,0.38-1.65,0.38l0,0c-1.67,0-3.17-0.57-4.65-1.75c-0.36-0.29-0.75-0.44-1.14-0.44
		c-0.44,0-0.82,0.19-1.12,0.54c-0.3,0.36-0.44,0.78-0.4,1.18c0.04,0.39,0.26,0.74,0.63,1.01c0.89,0.66,1.94,1.27,3.41,1.96
		c0.69,0.32,1.43,0.67,1.43,1.91c0,0.9,0.64,1.57,1.52,1.58l0,0c0.91,0,1.55-0.67,1.57-1.64c0.02-1.1,0.62-1.47,1.27-1.72
		c2.1-0.8,3.31-2.45,3.3-4.53c-0.03-2.03-1.04-3.41-3.08-4.2c-0.89-0.35-1.85-0.62-2.78-0.87c-0.46-0.13-0.92-0.26-1.38-0.39
		c-0.63-0.19-2.05-0.62-1.68-1.98c0.23-0.83,1.44-1.3,1.99-1.39c0.25-0.04,0.51-0.07,0.76-0.07c1.47,0,2.66,0.72,3.53,1.36
		c0.33,0.24,0.68,0.36,1.02,0.36c0.44,0,0.85-0.21,1.15-0.6c0.27-0.34,0.38-0.75,0.33-1.15c-0.05-0.41-0.29-0.79-0.66-1.06
		c-0.72-0.53-1.55-1.01-2.48-1.41c-0.62-0.27-1.28-0.65-1.29-1.81C51.43,39.8,50.8,39.11,49.89,39.11v-0.33l0,0l0,0V39.11z"/>
</g>
<g>
	<path class="st2" d="M1.22,3.07c0.41-0.38,0.8-0.78,1.23-1.13c0.16-0.13,0.4-0.26,0.6-0.26c11.35,0,22.71,0.02,34.06,0.04
		c1.25,0,2.49,0.1,3.74,0.12c0.66,0.01,1.16,0.27,1.62,0.73c4.07,4.04,8.19,8.03,12.24,12.09C67.15,27.11,79.58,39.58,92,52.06
		c2.08,2.08,4.08,4.24,6.12,6.36c0.31,0.32,0.58,0.68,0.87,1.02c0,0.3,0,0.6,0,0.9c-0.3,0.45-0.54,0.95-0.91,1.33
		c-3.78,3.89-7.53,7.8-11.37,11.62C78.6,81.38,70.44,89.42,62.3,97.48c-0.56,0.55-1.13,1.08-1.71,1.6
		c-0.59,0.53-1.45,0.54-2.02-0.01c-3.52-3.4-7.06-6.76-10.53-10.21C34.9,75.8,21.77,62.71,8.65,49.62C6.4,47.38,4.22,45.07,2,42.8
		c-0.39-0.39-0.57-0.83-0.59-1.38c-0.03-1.2-0.08-2.39-0.13-3.59c-0.01-0.25-0.04-0.49-0.06-0.74C1.22,25.76,1.22,14.41,1.22,3.07z
		 M5.85,6.3c0,0.26,0,0.44,0,0.62c0,10.91,0,21.82-0.01,32.73c0,0.36,0.09,0.62,0.35,0.87c17.67,17.65,35.33,35.32,53,52.98
		c0.11,0.11,0.23,0.22,0.28,0.26c11.3-11.3,22.57-22.57,33.88-33.88c-0.07-0.06-0.19-0.14-0.3-0.25
		C75.38,41.97,57.72,24.31,40.07,6.64c-0.26-0.26-0.52-0.35-0.87-0.35C28.29,6.3,17.38,6.3,6.47,6.3C6.29,6.3,6.11,6.3,5.85,6.3z"/>
	<path class="st2" d="M54.51,52.91c0,6.27,0,12.53,0,18.8c0,0.35,0.06,0.83-0.14,1.04c-0.39,0.42-0.9,0.81-1.43,1.02
		c-0.77,0.31-1.48,0.05-2.1-0.52c-0.51-0.48-0.73-1.01-0.73-1.74c0.05-11.77,0.06-23.54,0.09-35.3c0-0.78,0.08-1.56,0.1-2.34
		c0.03-1.5,1.64-2.47,3.08-1.62c0.35,0.21,0.68,0.49,0.96,0.79c0.13,0.14,0.16,0.42,0.16,0.63c0.01,6.17,0.01,12.33,0.01,18.5
		C54.51,52.41,54.51,52.66,54.51,52.91z"/>
	<path class="st2" d="M21.87,31.27c-4.88-0.31-8.68-4.39-8.46-9.2c0.12-2.52,1.4-4.5,3.26-6.11c1.61-1.39,3.42-2.26,5.63-2.11
		c5.89,0.39,9.93,6.06,8.06,11.45C29.16,28.75,25.28,31.48,21.87,31.27z M17.97,22.51c0,2.5,1.13,3.92,3.41,4.17
		c2.39,0.26,4.47-0.55,4.85-3.36c0.36-2.68-0.85-4.47-3.33-4.85C19.95,18.02,17.96,19.65,17.97,22.51z"/>
	<path class="st2" d="M64.17,45.73c3.98-0.2,7.17,3.89,7.11,7.04c-0.07,3.78-3.38,7.1-7.19,7.09c-3.7,0-6.98-3.46-7-7.3
		C57.08,49.57,60.49,45.49,64.17,45.73z M61.74,52.86c0.01,1.75,0.81,2.57,2.51,2.55c1.5-0.02,2.63-1.09,2.51-2.61
		c-0.16-2.19-0.6-2.44-2.84-2.53C62.48,50.22,61.73,51.16,61.74,52.86z"/>
	<path class="st2" d="M47.7,52.99c0.34,3.57-3.61,6.96-7.02,6.88c-3.7-0.09-7.04-3.35-7.02-7.04c0.02-4.07,3.62-7.03,6.77-7.11
		C44.29,45.63,48.11,49.28,47.7,52.99z M43.23,52.83c0.02-1.63-0.82-2.55-2.36-2.56c-1.85-0.02-2.76,0.81-2.77,2.55
		c-0.01,1.49,1.06,2.61,2.57,2.56C42.8,55.32,43.26,54.34,43.23,52.83z"/>
</g>
</svg>
