<?xml version="1.0" encoding="utf-8"?>
<!-- Generator: Adobe Illustrator 23.0.1, SVG Export Plug-In . SVG Version: 6.00 Build 0)  -->
<svg version="1.1" id="Layer_1" xmlns="http://www.w3.org/2000/svg" xmlns:xlink="http://www.w3.org/1999/xlink" x="0px" y="0px"
	 viewBox="0 0 100 100" style="enable-background:new 0 0 100 100;" xml:space="preserve">
<style type="text/css">
	.st0{fill:#FFFFFF;}
</style>
<g>
	<path class="st0" d="M99,45.73c0,2.81,0,5.61,0,8.42c-0.11,0.43-0.27,0.85-0.33,1.28C96.23,75.6,82.32,91.85,62.79,97.2
		c-2.81,0.77-5.72,1.16-8.58,1.73c-2.81,0-5.61,0-8.42,0c-0.42-0.11-0.84-0.28-1.27-0.33C24.62,96.31,8.24,82.4,2.86,63.1
		C2.04,60.18,1.61,57.14,1,54.15c0-2.81,0-5.61,0-8.42c0.12-0.49,0.28-0.97,0.34-1.46C3.76,24.37,17.53,8.24,36.85,2.8
		c2.92-0.82,5.96-1.25,8.94-1.86c2.81,0,5.61,0,8.42,0c0.42,0.11,0.84,0.28,1.27,0.33c19.9,2.29,36.27,16.19,41.66,35.52
		C97.96,39.71,98.39,42.75,99,45.73z M50.08,7.07C26.46,7.03,7.17,26.23,7.13,49.81c-0.05,23.56,19.12,42.96,42.5,43.01
		c23.93,0.05,43.23-19.07,43.24-42.84C92.89,26.37,73.68,7.1,50.08,7.07z"/>
	<path class="st0" d="M71.88,65.98c-1.39,1.63-2.66,3.12-3.97,4.66c-6.8-5.75-13.48-11.38-20.12-17.06
		c-0.45-0.39-0.82-1.16-0.83-1.75c-0.05-10.59-0.03-21.18-0.02-31.77c0-0.18,0.07-0.36,0.13-0.64c1.9,0,3.79,0,5.98,0
		c0,0.62,0,1.29,0,1.96c0,8.99,0.02,17.99-0.02,26.98c-0.01,1.19,0.31,1.98,1.25,2.76C60.12,55.98,65.89,60.91,71.88,65.98z"/>
</g>
</svg>
