<?xml version="1.0" encoding="utf-8"?>
<!-- Generator: Adobe Illustrator 23.0.1, SVG Export Plug-In . SVG Version: 6.00 Build 0)  -->
<svg version="1.1" id="Layer_1" xmlns="http://www.w3.org/2000/svg" xmlns:xlink="http://www.w3.org/1999/xlink" x="0px" y="0px"
	 viewBox="0 0 100 100" style="enable-background:new 0 0 100 100;" xml:space="preserve">
<g>
	<path d="M63.76,50.33c-1.25,0-2.26,1.01-2.26,2.26c0,1.24,1.01,2.26,2.26,2.26c1.24,0,2.26-1.01,2.26-2.26
		C66.01,51.34,65,50.33,63.76,50.33z"/>
	<path d="M81.14,79.92H79.1l-6.24-34.98c-1.2-6.59-6.93-11.37-13.62-11.37h-18c-6.7,0-12.43,4.78-13.62,11.38l-6.24,34.97h-2.03
		c-3.37,0-6.12,2.74-6.12,6.12v7.72c0,1.25,1.01,2.26,2.26,2.26H85c1.25,0,2.26-1.01,2.26-2.26v-7.72
		C87.26,82.66,84.51,79.92,81.14,79.92z M25.96,79.92l6.1-34.17c0.81-4.44,4.67-7.66,9.18-7.66h18c4.51,0,8.37,3.22,9.18,7.65
		l6.1,34.18H25.96z M17.74,86.04c0-0.88,0.72-1.61,1.6-1.61h61.8c0.88,0,1.6,0.72,1.6,1.61v5.47h-65V86.04z"/>
	<path d="M70.3,75.35l-2.83-15.59c-0.11-0.59-0.44-1.11-0.94-1.45c-0.5-0.34-1.09-0.47-1.69-0.37c-1.22,0.22-2.04,1.4-1.82,2.63
		l2.83,15.59c0.11,0.6,0.44,1.11,0.94,1.46c0.38,0.26,0.82,0.4,1.28,0.4c0.14,0,0.27-0.01,0.41-0.04
		C69.71,77.76,70.52,76.58,70.3,75.35z"/>
	<path d="M97.74,50.33H81.14c-1.25,0-2.26,1.01-2.26,2.26c0,1.24,1.01,2.26,2.26,2.26h16.61c1.24,0,2.26-1.01,2.26-2.26
		C100,51.34,98.99,50.33,97.74,50.33z"/>
	<path d="M19.34,50.33H2.73c-1.25,0-2.26,1.01-2.26,2.26c0,1.24,1.01,2.26,2.26,2.26h16.61c1.25,0,2.26-1.01,2.26-2.26
		C21.6,51.34,20.58,50.33,19.34,50.33z"/>
	<path d="M84.61,18.21c-0.88-0.88-2.31-0.88-3.19,0L70.49,29.14c-0.43,0.43-0.66,0.99-0.66,1.6s0.23,1.17,0.66,1.6
		c0.44,0.44,1.02,0.66,1.6,0.66c0.58,0,1.16-0.22,1.6-0.66l10.92-10.93c0.43-0.43,0.66-0.99,0.66-1.6
		C85.27,19.21,85.03,18.64,84.61,18.21z"/>
	<path d="M29.99,29.14L19.06,18.21c-0.88-0.88-2.31-0.88-3.19,0c-0.43,0.43-0.66,0.99-0.66,1.6c0,0.6,0.23,1.17,0.66,1.6
		l10.92,10.93c0.44,0.44,1.02,0.66,1.6,0.66c0.58,0,1.16-0.22,1.6-0.66c0.43-0.43,0.66-0.99,0.66-1.6S30.41,29.57,29.99,29.14z"/>
	<path d="M50.24,3.98c-1.25,0-2.26,1.01-2.26,2.26v15.45c0,1.25,1.01,2.26,2.26,2.26c1.25,0,2.26-1.01,2.26-2.26V6.24
		C52.5,4.99,51.48,3.98,50.24,3.98z"/>
</g>
</svg>
