<?xml version="1.0" encoding="utf-8"?>
<!-- Generator: Adobe Illustrator 23.0.1, SVG Export Plug-In . SVG Version: 6.00 Build 0)  -->
<svg version="1.1" id="Layer_1" xmlns="http://www.w3.org/2000/svg" xmlns:xlink="http://www.w3.org/1999/xlink" x="0px" y="0px"
	 viewBox="0 0 100 100" style="enable-background:new 0 0 100 100;" xml:space="preserve">
<g>
	<path d="M88.31,40.02H65.19c-2.23,0-4.05,1.82-4.05,4.05v4.72c0,0.81,0.24,1.59,0.69,2.26c-0.45,0.67-0.69,1.44-0.69,2.26v4.72
		c0,0.17,0.01,0.34,0.03,0.5c-0.17-0.02-0.34-0.03-0.5-0.03H52.4c-0.98,0-1.79,0.8-1.79,1.79c0,0.99,0.8,1.79,1.79,1.79h8.27
		c0.25,0,0.47,0.22,0.47,0.47v4.72c0,0.25-0.22,0.47-0.47,0.47H37.54c-0.25,0-0.47-0.22-0.47-0.47v-4.72c0-0.25,0.22-0.47,0.47-0.47
		h8.27c0.98,0,1.79-0.8,1.79-1.79c0-0.98-0.8-1.79-1.79-1.79h-8.27c-2.23,0-4.05,1.82-4.05,4.05v4.72c0,0.81,0.24,1.59,0.69,2.26
		c-0.46,0.67-0.69,1.44-0.69,2.26v4.72c0,0.17,0.01,0.34,0.03,0.5c-0.17-0.02-0.34-0.03-0.51-0.03H9.9c-2.23,0-4.05,1.82-4.05,4.05
		v4.72c0,0.81,0.24,1.59,0.69,2.26c-0.45,0.67-0.69,1.45-0.69,2.26v4.72C5.85,97.18,7.67,99,9.9,99h23.12
		c0.81,0,1.59-0.24,2.26-0.69c0.67,0.45,1.44,0.69,2.26,0.69h23.12c0.81,0,1.59-0.24,2.26-0.69C63.6,98.76,64.37,99,65.19,99h23.13
		c2.23,0,4.05-1.82,4.05-4.05v-4.72c0-0.81-0.24-1.59-0.69-2.26c0.46-0.67,0.69-1.45,0.69-2.26V81c0-0.81-0.24-1.59-0.69-2.26
		c0.46-0.67,0.69-1.45,0.69-2.26v-4.72c0-0.81-0.24-1.59-0.69-2.26c0.46-0.67,0.69-1.45,0.69-2.26v-4.72c0-0.81-0.24-1.59-0.69-2.26
		c0.46-0.67,0.69-1.45,0.69-2.26V53.3c0-0.81-0.24-1.59-0.69-2.26c0.46-0.67,0.69-1.45,0.69-2.26v-4.72
		C92.36,41.83,90.54,40.02,88.31,40.02z M64.72,90.24c0-0.25,0.22-0.47,0.47-0.47h23.12c0.25,0,0.47,0.22,0.47,0.47v4.72
		c0,0.25-0.22,0.47-0.47,0.47H65.19c-0.25,0-0.47-0.22-0.47-0.47V90.24z M88.31,86.19H65.19c-0.25,0-0.47-0.22-0.47-0.47V81
		c0-0.25,0.22-0.47,0.47-0.47h23.12c0.25,0,0.47,0.22,0.47,0.47v4.72C88.78,85.97,88.56,86.19,88.31,86.19z M88.31,76.96H65.19
		c-0.25,0-0.47-0.22-0.47-0.47v-4.72c0-0.25,0.22-0.47,0.47-0.47h23.12c0.25,0,0.47,0.22,0.47,0.47v4.72
		C88.78,76.74,88.56,76.96,88.31,76.96z M88.31,67.72H65.19c-0.25,0-0.47-0.22-0.47-0.47v-4.72c0-0.25,0.22-0.47,0.47-0.47h23.12
		c0.25,0,0.47,0.22,0.47,0.47v4.72C88.78,67.5,88.56,67.72,88.31,67.72z M88.31,58.49H65.19c-0.25,0-0.47-0.22-0.47-0.47V53.3
		c0-0.25,0.22-0.47,0.47-0.47h23.12c0.25,0,0.47,0.22,0.47,0.47v4.72C88.78,58.27,88.56,58.49,88.31,58.49z M88.78,48.78
		c0,0.25-0.22,0.47-0.47,0.47H65.19c-0.25,0-0.47-0.22-0.47-0.47v-4.72c0-0.25,0.22-0.47,0.47-0.47h23.12
		c0.25,0,0.47,0.22,0.47,0.47V48.78z M37.07,90.24c0-0.25,0.22-0.47,0.47-0.47h23.13c0.25,0,0.47,0.22,0.47,0.47v4.72
		c0,0.25-0.22,0.47-0.47,0.47H37.54c-0.25,0-0.47-0.22-0.47-0.47V90.24z M37.07,76.48v-4.72c0-0.25,0.22-0.47,0.47-0.47h23.13
		c0.25,0,0.47,0.22,0.47,0.47v4.72c0,0.25-0.22,0.47-0.47,0.47H37.54C37.29,76.96,37.07,76.74,37.07,76.48z M37.54,86.19
		c-0.25,0-0.47-0.22-0.47-0.47V81c0-0.25,0.22-0.47,0.47-0.47h23.13c0.25,0,0.47,0.22,0.47,0.47v4.72c0,0.25-0.22,0.47-0.47,0.47
		H37.54z M9.43,85.72V81c0-0.25,0.22-0.47,0.47-0.47h23.12c0.25,0,0.47,0.22,0.47,0.47v4.72c0,0.25-0.22,0.47-0.47,0.47H9.9
		C9.65,86.19,9.43,85.97,9.43,85.72z M9.43,90.24c0-0.25,0.22-0.47,0.47-0.47h23.12c0.25,0,0.47,0.22,0.47,0.47v4.72
		c0,0.25-0.22,0.47-0.47,0.47H9.9c-0.25,0-0.47-0.22-0.47-0.47V90.24z"/>
	<path d="M9.82,73.62c0.48,0,0.93-0.19,1.26-0.52L53.5,30.68v1.74c0,0.98,0.8,1.79,1.79,1.79c0.99,0,1.79-0.8,1.79-1.79v-6.02
		c0-0.99-0.8-1.79-1.79-1.79h-6.02c-0.99,0-1.79,0.8-1.79,1.79s0.8,1.79,1.79,1.79h1.68L8.56,70.57c-0.7,0.7-0.7,1.83,0,2.53
		C8.9,73.43,9.35,73.62,9.82,73.62z"/>
	<path d="M90.81,18c0.39,0.28,0.86,0.39,1.33,0.32c0.47-0.07,0.89-0.33,1.17-0.71c0.28-0.39,0.39-0.86,0.32-1.33
		C93,12.3,90.96,8.65,87.9,6.01c-3.1-2.67-7.06-4.14-11.15-4.14c-9.42,0-17.08,7.66-17.08,17.08s7.66,17.08,17.08,17.08
		c7.6,0,14.36-5.1,16.43-12.41c0.13-0.46,0.07-0.94-0.16-1.36c-0.23-0.42-0.61-0.72-1.07-0.85c-0.95-0.27-1.94,0.28-2.21,1.23
		c-1.64,5.78-6.98,9.81-12.99,9.81c-7.45,0-13.51-6.06-13.51-13.51S69.3,5.44,76.75,5.44c6.69,0,12.3,4.79,13.34,11.39
		C90.17,17.3,90.42,17.72,90.81,18z"/>
	<path d="M76.65,7.66c-6.23,0-11.3,5.07-11.3,11.3s5.07,11.3,11.3,11.3c6.23,0,11.3-5.07,11.3-11.3S82.88,7.66,76.65,7.66z
		 M84.38,18.95c0,4.26-3.46,7.72-7.72,7.72c-4.26,0-7.72-3.46-7.72-7.72s3.47-7.72,7.72-7.72C80.91,11.23,84.38,14.7,84.38,18.95z"
		/>
	<path d="M77.35,17.92v-2.8c0.59,0.05,0.9,0.19,1.54,0.51c0.32,0.16,0.72,0.1,0.98-0.34c0.21-0.35,0.35-0.91-0.08-1.27
		c-0.61-0.5-1.67-0.66-2.44-0.66v-0.42c0-0.24-0.29-0.4-0.54-0.4c-0.27,0-0.54,0.17-0.54,0.4v0.45c-1.84,0.24-3.09,1.23-3.09,3.1
		c0,1.92,1.38,2.55,3.09,3.2v3.17c-0.84-0.1-1.24-0.43-2.04-1.03c-0.4-0.3-0.78-0.18-1.07,0.22c-0.37,0.52-0.32,0.98-0.01,1.4
		c0.6,0.81,1.91,1.28,3.12,1.28v0.45c0,0.24,0.28,0.4,0.54,0.4c0.25,0,0.54-0.16,0.54-0.4V24.7c1.61-0.25,3.01-1.26,3.01-3.37
		C80.35,19.4,79.14,18.58,77.35,17.92z M76.39,17.58c-0.96-0.38-1.27-0.69-1.27-1.29c0-0.69,0.59-1,1.27-1.11V17.58z M77.22,22.84
		v-2.77c0.99,0.43,1.19,0.91,1.19,1.46C78.41,22.27,77.94,22.69,77.22,22.84z"/>
</g>
</svg>
