<?xml version="1.0" encoding="utf-8"?>
<!-- Generator: Adobe Illustrator 23.0.1, SVG Export Plug-In . SVG Version: 6.00 Build 0)  -->
<svg version="1.1" id="Layer_1" xmlns="http://www.w3.org/2000/svg" xmlns:xlink="http://www.w3.org/1999/xlink" x="0px" y="0px"
	 viewBox="0 0 100 100" style="enable-background:new 0 0 100 100;" xml:space="preserve">
<g>
	<path d="M91.66,64.81v-7.79h1.41c0.97,0,1.76-0.79,1.76-1.76v-30.1c0-4.46-3.63-8.1-8.1-8.1H63.15V10.9c0-4.46-3.63-8.1-8.1-8.1
		H42.38c-4.46,0-8.1,3.63-8.1,8.1v6.16H10.71c-4.46,0-8.1,3.63-8.1,8.1v30.1c0,0.97,0.79,1.76,1.76,1.76h1.41v29.92
		c0,4.47,3.63,8.1,8.1,8.1h54.4c3.14,2.07,6.78,3.17,10.54,3.17C89.39,98.2,98,89.59,98,79.01C98,73.62,95.69,68.45,91.66,64.81z
		 M37.81,10.9c0-2.52,2.05-4.57,4.57-4.57h12.67c2.52,0,4.58,2.05,4.58,4.57v6.16H37.81V10.9z M51.71,44.34v9.15h-5.98v-9.15H51.71z
		 M53.47,40.82h-9.5c-0.97,0-1.76,0.79-1.76,1.76v10.91H6.13V25.16c0-2.52,2.05-4.57,4.57-4.57h76.03c2.52,0,4.57,2.05,4.57,4.57
		v28.33H55.23V42.58C55.23,41.61,54.44,40.82,53.47,40.82z M39.39,59.83v-2.81h18.65v2.81H39.39z M63.36,81.41l-0.04-0.28
		c-0.1-0.7-0.15-1.34-0.16-2.02c-0.01-0.59,0.03-1.22,0.11-1.95c0.06-0.49,0.12-0.89,0.19-1.24c0.01-0.02,0.01-0.05,0.01-0.07
		c0.2-0.96,0.49-1.91,0.88-2.83c0.04-0.09,0.08-0.18,0.12-0.26l0.04-0.1c0.14-0.3,0.28-0.59,0.42-0.86c0.1-0.19,0.21-0.38,0.31-0.57
		c0.11-0.19,0.23-0.38,0.34-0.56c0.15-0.23,0.29-0.46,0.45-0.68c0.05-0.07,0.11-0.15,0.17-0.22l0.08-0.11
		c0.9-1.2,1.96-2.26,3.14-3.15l0.11-0.08c0.08-0.06,0.16-0.13,0.25-0.19c0.21-0.15,0.43-0.3,0.66-0.44c0.2-0.13,0.39-0.25,0.59-0.36
		c0.18-0.1,0.36-0.2,0.54-0.3c0.33-0.17,0.63-0.32,0.92-0.44l0.12-0.06c0.06-0.03,0.12-0.06,0.18-0.08
		c0.93-0.39,1.89-0.68,2.88-0.89l0.05-0.01c0.37-0.07,0.78-0.14,1.27-0.19c0.21-0.02,0.42-0.04,0.62-0.05l0.12-0.01
		c0.29-0.02,0.58-0.04,0.87-0.04c0.18,0,0.35,0,0.53,0.01l0.16,0c0.3,0.01,0.63,0.02,0.96,0.05c0.13,0.01,0.25,0.03,0.38,0.05
		l0.17,0.02c0.36,0.05,0.71,0.09,1.05,0.16c0.08,0.02,0.17,0.04,0.25,0.06l0.15,0.04c0.37,0.08,0.76,0.18,1.14,0.3
		c0.05,0.01,0.09,0.03,0.14,0.05l0.12,0.04c0.48,0.16,0.87,0.3,1.22,0.45c0.02,0.01,0.04,0.02,0.07,0.03l0.07,0.03
		c5.75,2.48,9.46,8.13,9.46,14.37c0,8.64-7.03,15.66-15.66,15.66c-3.27,0-6.41-1.01-9.09-2.93c-0.48-0.34-0.94-0.71-1.42-1.15
		l-0.1-0.09c-0.06-0.05-0.11-0.1-0.16-0.15c-0.96-0.91-1.8-1.94-2.5-3.06l-0.16-0.26c-0.71-1.18-1.25-2.42-1.62-3.7l-0.17,0.05
		l0.16-0.1C63.6,82.71,63.46,82.09,63.36,81.41z M9.3,57.01h26.57v4.57c0,0.97,0.79,1.76,1.76,1.76h22.18
		c0.97,0,1.76-0.79,1.76-1.76v-4.57h26.57v5.24c-0.05-0.02-0.1-0.05-0.14-0.07l-0.12-0.07c-0.48-0.26-0.99-0.51-1.51-0.73
		l-0.17-0.07c-0.53-0.22-1.07-0.42-1.61-0.59l-0.11-0.03c-1.2-0.37-2.42-0.62-3.64-0.75c-0.05-0.01-0.11-0.01-0.16-0.01l-0.12-0.01
		c-0.49-0.04-1-0.07-1.51-0.08c-0.04,0-0.07,0-0.11,0c-0.1-0.01-0.21,0-0.31,0c-0.05,0-0.1,0.01-0.15,0.01
		c-0.42,0.01-0.86,0.03-1.3,0.07l-0.11,0.01c-0.14,0.01-0.29,0.02-0.43,0.04c-0.06,0.01-0.11,0.01-0.17,0.01
		c-0.07,0-0.15,0.01-0.22,0.02c-0.41,0.05-0.81,0.13-1.21,0.21l-0.14,0.02c-1.17,0.24-2.32,0.6-3.42,1.06
		c-0.15,0.06-0.3,0.13-0.45,0.2l-0.16,0.07c-0.29,0.13-0.58,0.27-0.86,0.42c-0.29,0.15-0.58,0.31-0.87,0.48
		c-0.16,0.09-0.32,0.19-0.48,0.29c-0.35,0.22-0.7,0.45-1.02,0.68l-0.14,0.1c-1.63,1.19-3.05,2.62-4.25,4.28l-0.04,0.06
		c-0.24,0.33-0.47,0.67-0.7,1.05c-0.09,0.15-0.18,0.29-0.27,0.44c-0.17,0.3-0.34,0.59-0.5,0.9c-0.14,0.26-0.26,0.53-0.39,0.8
		l-0.07,0.15c-0.08,0.17-0.16,0.34-0.23,0.51c-0.46,1.1-0.81,2.25-1.05,3.41l-0.02,0.11c-0.08,0.37-0.16,0.81-0.22,1.26
		c-0.01,0.06-0.01,0.12-0.01,0.18c0,0.04,0,0.08-0.01,0.12c-0.04,0.38-0.07,0.76-0.09,1.18l-0.02,0.25
		c-0.01,0.18-0.02,0.36-0.02,0.54c0,0.03,0,0.06-0.01,0.09c0,0.05-0.01,0.09-0.01,0.14c0,0.39,0.03,0.78,0.05,1.15l0.01,0.18
		c0,0.06,0.01,0.12,0.01,0.17c0,0.08,0.01,0.16,0.01,0.23c0.24,2.7,1.04,5.27,2.37,7.64c0.04,0.08,0.09,0.15,0.14,0.23l0.08,0.14
		c0.3,0.5,0.56,0.9,0.81,1.27c0.08,0.12,0.17,0.23,0.25,0.34l0.13,0.17c0.29,0.38,0.54,0.69,0.78,0.97H13.87
		c-2.52,0-4.57-2.05-4.57-4.57V57.01z"/>
	<rect x="67.22" y="77.24" transform="matrix(0.5547 -0.8321 0.8321 0.5547 -30.6351 100.7711)" width="23.2" height="3.52"/>
	<path d="M81.81,83.76c0,2.72,2.21,4.93,4.93,4.93c2.72,0,4.93-2.21,4.93-4.93c0-2.72-2.21-4.93-4.93-4.93
		C84.02,78.83,81.81,81.05,81.81,83.76z M85.33,83.76c0-0.78,0.63-1.41,1.41-1.41c0.78,0,1.41,0.63,1.41,1.41s-0.63,1.41-1.41,1.41
		C85.96,85.17,85.33,84.54,85.33,83.76z"/>
	<path d="M70.9,79.19c2.72,0,4.93-2.21,4.93-4.93s-2.21-4.93-4.93-4.93s-4.93,2.21-4.93,4.93S68.18,79.19,70.9,79.19z M69.49,74.26
		c0-0.78,0.63-1.41,1.41-1.41s1.41,0.63,1.41,1.41s-0.63,1.41-1.41,1.41S69.49,75.04,69.49,74.26z"/>
	<rect x="72.48" y="47.33" width="3.17" height="3.17"/>
	<rect x="78.82" y="47.33" width="3.17" height="3.17"/>
	<rect x="85.15" y="47.33" width="3.17" height="3.17"/>
</g>
</svg>
