<?xml version="1.0" encoding="utf-8"?>
<!-- Generator: Adobe Illustrator 23.0.1, SVG Export Plug-In . SVG Version: 6.00 Build 0)  -->
<svg version="1.1" id="Layer_1" xmlns="http://www.w3.org/2000/svg" xmlns:xlink="http://www.w3.org/1999/xlink" x="0px" y="0px"
	 viewBox="0 0 100 100" style="enable-background:new 0 0 100 100;" xml:space="preserve">
<g>
	<g>
		<g>
			<path d="M17.29,14.51c-5.13,0-9.3,4.17-9.3,9.3c0,5.13,4.17,9.3,9.3,9.3c5.13,0,9.3-4.17,9.3-9.3S22.42,14.51,17.29,14.51z
				 M17.29,30.22c-3.54,0-6.41-2.88-6.41-6.41s2.88-6.41,6.41-6.41s6.41,2.88,6.41,6.41S20.83,30.22,17.29,30.22z"/>
		</g>
	</g>
	<g>
		<g>
			<path d="M17.29,7.39c-0.8,0-1.44,0.65-1.44,1.44v2.9c0,0.8,0.65,1.44,1.44,1.44s1.44-0.65,1.44-1.44v-2.9
				C18.73,8.04,18.09,7.39,17.29,7.39z"/>
		</g>
	</g>
	<g>
		<g>
			<path d="M28.9,12.2c-0.56-0.56-1.48-0.56-2.04,0l-2.05,2.05c-0.56,0.56-0.56,1.48,0,2.04c0.28,0.28,0.65,0.42,1.02,0.42
				c0.37,0,0.74-0.14,1.02-0.42l2.05-2.05C29.46,13.68,29.46,12.76,28.9,12.2z"/>
		</g>
	</g>
	<g>
		<g>
			<path d="M32.26,22.36h-2.9c-0.8,0-1.44,0.65-1.44,1.44s0.65,1.44,1.44,1.44h2.9c0.8,0,1.44-0.65,1.44-1.44
				S33.06,22.36,32.26,22.36z"/>
		</g>
	</g>
	<g>
		<g>
			<path d="M28.9,33.37l-2.05-2.05c-0.56-0.56-1.48-0.56-2.04,0c-0.56,0.56-0.56,1.48,0,2.04l2.05,2.05
				c0.28,0.28,0.65,0.42,1.02,0.42s0.74-0.14,1.02-0.42C29.46,34.85,29.46,33.93,28.9,33.37z"/>
		</g>
	</g>
	<g>
		<g>
			<path d="M17.29,34.43c-0.8,0-1.44,0.65-1.44,1.44v2.9c0,0.8,0.65,1.44,1.44,1.44s1.44-0.65,1.44-1.44v-2.9
				C18.73,35.08,18.09,34.43,17.29,34.43z"/>
		</g>
	</g>
	<g>
		<g>
			<path d="M9.78,31.32c-0.56-0.56-1.48-0.56-2.04,0l-2.05,2.05c-0.56,0.56-0.56,1.48,0,2.04c0.28,0.28,0.65,0.42,1.02,0.42
				c0.37,0,0.74-0.14,1.02-0.42l2.05-2.05C10.34,32.79,10.34,31.88,9.78,31.32z"/>
		</g>
	</g>
	<g>
		<g>
			<path d="M5.22,22.36h-2.9c-0.8,0-1.44,0.65-1.44,1.44s0.65,1.44,1.44,1.44h2.9c0.8,0,1.44-0.65,1.44-1.44S6.02,22.36,5.22,22.36z
				"/>
		</g>
	</g>
	<g>
		<g>
			<path d="M9.78,14.25L7.73,12.2c-0.56-0.56-1.48-0.56-2.04,0s-0.56,1.48,0,2.04l2.05,2.05c0.28,0.28,0.65,0.42,1.02,0.42
				c0.37,0,0.74-0.14,1.02-0.42C10.34,15.73,10.34,14.81,9.78,14.25z"/>
		</g>
	</g>
	<g>
		<g>
			<path d="M31.82,78.84c5.6-1.24,11.91-1.9,18.25-1.9c3.01,0,6.02,0.14,9.01,0.44c0.01,0,0.02,0,0.03,0
				c5.57,0.55,10.78,1.61,15.39,3.16c5.5,1.84,9.74,4.27,12.23,6.96c-1.26,0.39-2.47,0.97-3.61,1.74c-3.62,2.46-8.3,2.46-11.93,0
				c-4.61-3.12-10.56-3.12-15.17,0c-3.62,2.46-8.3,2.46-11.93,0c-4.61-3.12-10.56-3.12-15.17,0c-3.62,2.46-8.3,2.46-11.93,0
				c-1.13-0.77-2.35-1.35-3.61-1.74c2.49-2.69,6.72-5.11,12.21-6.95L31.82,78.84z M94.26,41.82c1.74,5.77,1.93,11.35,1.82,14.76
				c-2.06-1.99-4.55-3.59-7.35-4.71c-3.18-1.27-6.51-1.81-9.74-1.59c0.02-0.07,0.05-0.15,0.07-0.22c1.13-3.44,1.97-6.99,2.38-10.59
				c0.38-3.3,0.41-6.62,0-9.92c-0.24-1.91-0.65-3.79-1.24-5.63c0-0.01-0.01-0.03-0.01-0.04c5.17,2.8,9.15,6.93,11.85,12.32
				 M94.62,34.91c-3.58-7.14-9.19-12.27-16.69-15.26c-10.32-4.11-21.05-2.76-31.05,3.91c-7.46,4.98-11.83,11.08-12.01,11.34
				c-0.34,0.48-0.35,1.12-0.04,1.61c0.32,0.49,0.9,0.75,1.48,0.64c3.44-0.64,7.08-0.25,10.55,1.13c3.41,1.36,6.3,3.54,8.34,6.31
				c0.4,0.54,0.98,0.87,1.66,0.67c1.83-0.32,3.72-0.36,5.61-0.1L50.95,74.06c-0.29,0-0.58-0.01-0.87-0.01
				c-6.65,0-13,0.66-18.88,1.97l-6.49,1.79c-6.89,2.31-11.89,5.45-14.55,9.1c-2.88-0.16-5.79,0.62-8.31,2.32
				c-0.66,0.45-0.83,1.34-0.38,2c0.45,0.66,1.34,0.83,2,0.38c2.14-1.45,4.65-2.05,7.09-1.78c0.09,0.02,0.18,0.03,0.27,0.03
				c1.6,0.21,3.16,0.8,4.57,1.75c4.61,3.12,10.56,3.12,15.17,0c3.62-2.46,8.31-2.46,11.93,0c4.61,3.12,10.56,3.12,15.17,0
				c3.62-2.46,8.31-2.46,11.93,0c2.3,1.56,4.94,2.34,7.58,2.34c2.64,0,5.28-0.78,7.58-2.34c1.4-0.95,2.96-1.53,4.56-1.75
				c0.09,0,0.19-0.01,0.28-0.04c2.44-0.26,4.95,0.33,7.09,1.78c0.66,0.45,1.56,0.28,2-0.38c0.45-0.66,0.27-1.56-0.38-2
				c-2.51-1.7-5.43-2.48-8.31-2.32c-2.66-3.66-7.67-6.8-14.57-9.11c-4.29-1.43-9.07-2.47-14.15-3.09l10.33-25.92
				c1.56,1.13,2.92,2.46,4.03,3.98c0.37,0.5,0.93,0.78,1.56,0.63c3.41-0.62,7.03-0.22,10.47,1.15c3.46,1.38,6.38,3.6,8.43,6.43
				c0.28,0.38,0.71,0.59,1.17,0.59c0.12,0,0.23-0.01,0.35-0.04c0.57-0.14,1-0.61,1.08-1.2c0.05-0.38,1.3-9.46-1.67-19.35
				 M67.18,29.67c1.85-1.94,3.94-3.71,6.21-5.15c1.05-0.66,2.15-1.26,3.29-1.74c0.3,0.68,0.69,1.69,1.06,3.01
				c1.74,6.26,1.27,13.02-0.26,19.28c-0.33,1.35-0.71,2.68-1.14,4c0,0.01-0.01,0.03-0.01,0.04c-1.96-2.08-4.37-3.77-7.1-4.99
				c-0.04-0.02-0.07-0.03-0.11-0.05c-3.23-1.42-6.78-2.14-10.31-1.94c0.02-0.03,0.03-0.06,0.05-0.1c1.34-2.81,2.91-5.53,4.74-8.06
				 M61.27,32.29c-1.47,2.03-2.77,4.17-3.94,6.39c-0.42,0.8-0.85,1.61-1.21,2.44c-0.01,0.01-0.01,0.03-0.02,0.04
				c-2.2-2.38-4.99-4.28-8.17-5.55c-2.8-1.11-5.71-1.67-8.57-1.64c1.93-2.17,5.09-5.33,9.21-8.06c4.08-2.71,8.3-4.48,12.52-5.26
				c4.09-0.75,8.22-0.58,12.31,0.52c-0.02,0.01-0.03,0.02-0.05,0.03c-2.22,1.22-4.27,2.72-6.13,4.42c-0.73,0.66-1.44,1.35-2.12,2.06
				 M58.29,74.41c-0.67-0.06-1.34-0.11-2.02-0.15c-0.75-0.05-1.5-0.09-2.25-0.12l11.31-28.38c0.68,0.2,1.36,0.43,2.02,0.7
				c0.11,0.04,1.76,0.8,1.76,0.81L58.29,74.41z"/>
		</g>
	</g>
</g>
</svg>
