<?xml version="1.0" encoding="utf-8"?>
<!-- Generator: Adobe Illustrator 23.0.1, SVG Export Plug-In . SVG Version: 6.00 Build 0)  -->
<svg version="1.1" id="Layer_1" xmlns="http://www.w3.org/2000/svg" xmlns:xlink="http://www.w3.org/1999/xlink" x="0px" y="0px"
	 viewBox="0 0 100 100" style="enable-background:new 0 0 100 100;" xml:space="preserve">
<g>
	<path d="M61.04,2c1.17,0.56,1.52,1.5,1.51,2.77c-0.04,6.82-0.02,13.64-0.02,20.46c0,0.31,0,0.62,0,1.05c0.44,0,0.81,0,1.17,0
		c4.93,0,9.85-0.01,14.78,0c4.54,0.01,8.31,3.8,8.31,8.35c0,20.56,0,41.12,0,61.67c0,0.22,0.01,0.44,0,0.66
		c-0.06,1.2-0.94,2.07-2.05,2.03c-1.09-0.04-1.9-0.88-1.9-2.06c-0.02-4.36-0.01-8.72-0.01-13.07c0-16.42,0-32.84,0-49.26
		c0-2.85-1.47-4.35-4.31-4.35c-6,0-12,0.04-18,0.04c-6.03,0-12.06-0.03-18.09-0.04c-0.37,0-0.74,0-1.25,0
		c1.88,3.55,1.08,7.27,1.09,10.88c0.08,18.38,0.03,36.76,0.03,55.14c0,1.81-0.69,2.75-1.99,2.74c-1.29-0.02-1.97-0.97-1.97-2.78
		c0-8.15,0-16.29,0-24.44c0-0.31,0-0.62,0-1.02c-0.4-0.02-0.74-0.05-1.07-0.05c-4.93,0.01-9.85,0.02-14.78,0.04
		c-4.44,0.02-8.39-3.78-8.39-8.19c-0.02-19.39,0-38.78-0.02-58.17c0-1.17,0.53-1.89,1.5-2.39c0.32,0,0.63,0,0.95,0
		c1.17,0.49,1.55,1.37,1.55,2.63c-0.03,14.21-0.02,28.41-0.02,42.62c0,5.05,0,10.1,0,15.15c0,1.72,0.46,3.28,2.22,3.93
		c2.79,1.04,5.98-0.03,5.96-3.86c-0.04-9.09,0.11-18.19-0.07-27.28c-0.1-4.99,4.12-9.08,8.92-8.97c7.51,0.18,15.03,0.05,22.54,0.05
		c0.3,0,0.6-0.03,0.96-0.05c0-0.42,0-0.73,0-1.04c0-6.85,0.03-13.7-0.02-20.55C58.54,3.37,58.92,2.49,60.09,2
		C60.41,2,60.72,2,61.04,2z M38.32,66.65c0-0.42,0-0.79,0-1.17c0-6.32,0-12.63,0-18.95c0-4.11,0.01-8.21-0.01-12.32
		c-0.01-1.86-0.87-3.23-2.43-3.67c-3.14-0.89-5.72,0.47-5.72,3.94c0,0.25-0.01,0.51-0.01,0.76c0,7.2,0.07,14.4-0.03,21.6
		c-0.05,3.26,0.72,6.64-1.09,9.8C32.19,66.65,35.2,66.65,38.32,66.65z"/>
	<path d="M23.71,2c0.75,0.49,1.43,1.02,1.42,2.04c-0.01,0.9-0.66,1.73-1.52,1.91c-0.91,0.2-1.82-0.22-2.23-1.01
		c-0.41-0.81-0.24-1.81,0.45-2.4c0.23-0.2,0.49-0.36,0.74-0.54C22.95,2,23.33,2,23.71,2z"/>
	<path d="M29.77,2c0.71,0.47,1.38,0.97,1.42,1.94c0.03,0.89-0.59,1.76-1.43,1.99c-0.93,0.25-1.88-0.16-2.31-0.99
		c-0.42-0.81-0.24-1.8,0.44-2.4c0.23-0.2,0.5-0.36,0.74-0.54C29.01,2,29.39,2,29.77,2z"/>
	<path d="M35.83,2c0.31,0.25,0.67,0.45,0.94,0.75c0.72,0.8,0.61,2.07-0.21,2.78c-0.81,0.7-2.07,0.61-2.79-0.2
		c-0.72-0.82-0.64-2.07,0.18-2.78c0.23-0.2,0.49-0.36,0.74-0.54C35.08,2,35.46,2,35.83,2z"/>
	<path d="M41.9,2c0.76,0.49,1.44,1.03,1.42,2.06c-0.02,0.87-0.65,1.68-1.47,1.88c-0.94,0.23-1.91-0.21-2.31-1.06
		c-0.39-0.83-0.17-1.82,0.54-2.4C40.3,2.31,40.53,2.16,40.76,2C41.14,2,41.52,2,41.9,2z"/>
	<path d="M47.96,2c0.81,0.53,1.53,1.11,1.4,2.22c-0.1,0.93-0.8,1.64-1.69,1.75c-0.94,0.11-1.79-0.37-2.12-1.2
		c-0.34-0.85-0.07-1.79,0.67-2.35c0.2-0.15,0.4-0.28,0.6-0.42C47.2,2,47.58,2,47.96,2z"/>
	<path d="M54.03,2c0.75,0.49,1.43,1.02,1.42,2.04c-0.01,0.9-0.66,1.73-1.52,1.91c-0.91,0.2-1.82-0.22-2.23-1.01
		c-0.41-0.81-0.24-1.81,0.45-2.4c0.23-0.2,0.49-0.36,0.74-0.54C53.27,2,53.65,2,54.03,2z"/>
	<path d="M50.5,70.62c0-1.27,0-2.52,0-3.85c8.01,0,16.02,0,24.09,0c0,1.26,0,2.51,0,3.85C66.59,70.62,58.57,70.62,50.5,70.62z"/>
	<path d="M74.62,50.61c0,1.31,0,2.53,0,3.82c-8.04,0-16.04,0-24.11,0c0-1.25,0-2.49,0-3.82C58.51,50.61,66.53,50.61,74.62,50.61z"/>
	<path d="M74.6,62.58c-8.05,0-16.02,0-24.08,0c0-1.28,0-2.55,0-3.88c8.02,0,16.02,0,24.08,0C74.6,59.98,74.6,61.23,74.6,62.58z"/>
	<path d="M62.62,86.8c0-1.31,0-2.53,0-3.82c4,0,7.95,0,11.98,0c0,1.25,0,2.5,0,3.82C70.64,86.8,66.66,86.8,62.62,86.8z"/>
	<path d="M47.42,95.04c1.11,0.01,1.98,0.9,1.96,1.99c-0.02,1.08-0.94,1.98-2.02,1.96c-1.08-0.02-1.97-0.94-1.96-2.02
		C45.42,95.88,46.31,95.03,47.42,95.04z"/>
	<path d="M53.48,95.04c1.11,0.01,1.99,0.9,1.97,1.98c-0.02,1.09-0.93,1.98-2.01,1.97c-1.08-0.01-1.97-0.92-1.97-2.01
		C51.47,95.89,52.37,95.03,53.48,95.04z"/>
	<path d="M59.55,95.04c1.1,0.01,1.97,0.9,1.96,1.99c-0.01,1.08-0.94,1.98-2.02,1.96c-1.08-0.02-1.98-0.94-1.96-2.02
		C57.55,95.88,58.43,95.03,59.55,95.04z"/>
	<path d="M65.66,95.04c1.11,0.03,1.96,0.94,1.91,2.04c-0.05,1.09-0.99,1.96-2.06,1.91c-1.08-0.05-1.95-0.99-1.91-2.07
		C63.65,95.82,64.54,95.01,65.66,95.04z"/>
	<path d="M73.64,97.04c-0.02,1.08-0.95,1.98-2.02,1.96c-1.08-0.02-1.98-0.95-1.96-2.02c0.02-1.1,0.91-1.95,2.02-1.94
		C72.77,95.05,73.67,95.96,73.64,97.04z"/>
	<path d="M77.73,95.04c1.11,0.01,1.99,0.88,1.98,1.98c-0.01,1.08-0.93,1.99-2,1.98c-1.08-0.01-1.98-0.92-1.98-2
		C75.73,95.9,76.62,95.04,77.73,95.04z"/>
	<path d="M50.35,18.25c0,1.31,0,2.56,0,3.88c-8.01,0-16.02,0-24.09,0c0-1.28,0-2.55,0-3.88C34.3,18.25,42.3,18.25,50.35,18.25z"/>
	<path d="M50.37,10.21c0,1.29,0,2.52,0,3.82c-8.02,0-16.04,0-24.12,0c0-1.26,0-2.5,0-3.82C34.26,10.21,42.26,10.21,50.37,10.21z"/>
</g>
</svg>
