<?xml version="1.0" encoding="utf-8"?>
<!-- Generator: Adobe Illustrator 23.0.1, SVG Export Plug-In . SVG Version: 6.00 Build 0)  -->
<svg version="1.1" id="Layer_1" xmlns="http://www.w3.org/2000/svg" xmlns:xlink="http://www.w3.org/1999/xlink" x="0px" y="0px"
	 viewBox="0 0 100 100" style="enable-background:new 0 0 100 100;" xml:space="preserve">
<g>
	<path d="M72.09,66.58c0.2,0.08,0.39,0.12,0.57,0.12c0.45,0,0.89-0.24,1.43-0.78c5.22-5.23,10.45-10.46,15.67-15.68l9.42-9.42
		c1.09-1.09,1.1-1.81,0.03-2.88l-7.99-7.99c-5.73-5.72-11.45-11.45-17.17-17.18c-0.51-0.51-0.95-0.74-1.4-0.74
		c-0.19,0-0.39,0.04-0.6,0.12c-0.68,0.27-0.96,0.8-0.95,1.84c0.02,2.6,0.02,5.19,0.01,7.79l0,3v0.76v0.45v0.65h-0.65l-0.56,0h-0.43
		l-0.59,0l-3.43,0h-1.03h-1.03c-4.14,0-8.27,0-12.41-0.01c-1,0-1.52,0.22-1.87,0.78c-0.3,0.48-0.32,1.02-0.07,1.49
		c0.29,0.54,0.89,0.86,1.59,0.87c1.04,0.01,2.09,0.02,3.13,0.02c0.8,0,1.61,0,2.41,0c0.81,0,1.61,0,2.42,0l4.01,0l4.12,0
		c1.86,0,3.72,0,5.58-0.01c1.32,0,1.86-0.55,1.89-1.87c0-0.3,0-0.59,0-0.89l0-0.5l0-5.37v-1.83v-1.58l1.12,1.11l19.98,19.96
		l0.46,0.46l-0.46,0.46L75.29,59.7l-1.12,1.12v-1.58l0-2.33c0-1.92,0-3.93,0-5.93c0-1.56-0.44-2-2.04-2.01c-0.48,0-0.95,0-1.42,0
		l-1.16,0l-1.14,0h-0.56l-0.08-0.55c-1.31-8.55-8.06-14.84-16.42-15.3c-0.34-0.02-0.69-0.03-1.03-0.03c-3.29,0-6.37,0.9-9.15,2.69
		c-4.49,2.88-7.21,7.12-8.07,12.6l-0.09,0.55h-0.56h-2.06h-0.65v-0.65l0-3.34c0-2.88-0.01-5.71,0.01-8.54
		c0.01-1.13-0.25-1.65-0.97-1.94c-0.21-0.09-0.41-0.13-0.6-0.13c-0.46,0-0.9,0.25-1.48,0.83C21.04,40.82,15.36,46.5,9.68,52.18
		L1.7,60.16c-1.14,1.14-1.14,1.83-0.02,2.95l6.4,6.4c6.23,6.23,12.47,12.47,18.69,18.71c0.52,0.53,0.98,0.77,1.44,0.77
		c0.2,0,0.41-0.05,0.64-0.14c0.66-0.28,0.92-0.81,0.91-1.88c-0.02-2.6-0.01-5.2-0.01-7.79l0-3l0-0.73v-0.4v-0.65h0.65h0.52l0.4,0
		l0.39,0l1.96,0l3.03,0l3.03,0c3.44,0,6.88,0,10.32-0.01c0.67,0,1.2-0.18,1.53-0.51c0.26-0.27,0.39-0.64,0.38-1.09
		c-0.02-1.33-1.2-1.53-1.89-1.53c-3.61,0-7.21-0.01-10.82-0.01c-3.58,0-7.17,0-10.75,0.01c-1.25,0-1.81,0.56-1.82,1.81
		c-0.01,1.06-0.01,2.12,0,3.18l0,1.45l0,2.86v1.19v1.58l-1.12-1.11L5.47,62.14l-0.46-0.46l0.46-0.46l8.68-8.68l11.39-11.4l1.12-1.12
		v1.58l0,0.22l0,0.62l0,2.33c0,1.85,0,3.69,0.01,5.54c0.01,1.2,0.55,1.73,1.76,1.75c0.51,0.01,1.02,0.01,1.53,0.01l1.22,0l1.21,0
		h0.56l0.09,0.55C34.64,62.67,43,67.95,50.43,67.95c7.42-0.02,15.74-5.28,17.37-15.29l0.09-0.55h0.56h1.99h0.65v0.65l0,0.4l0,0.72
		l0,3.01c0,2.59,0.01,5.19-0.01,7.78C71.08,65.78,71.35,66.29,72.09,66.58z M50.46,64.79L50.46,64.79h-0.04
		c-7.86,0-14.26-6.34-14.28-14.14c-0.02-8.07,6.29-14.41,14.35-14.43c7.85,0,14.2,6.39,14.22,14.24
		C64.72,58.34,58.33,64.76,50.46,64.79z"/>
	<path d="M49.89,39.11c-0.87,0-1.52,0.65-1.53,1.55c-0.02,1.22-0.72,1.57-1.45,1.83c-1.82,0.65-2.98,2.24-3.03,4.14
		c-0.06,2.35,1.44,4.19,4.03,4.92l0.26,0.07c1.18,0.33,2.4,0.67,3.58,1.08c0.46,0.16,1.1,0.79,1.05,1.42
		c-0.04,0.53-0.45,1.14-0.95,1.41c-0.45,0.24-1.03,0.38-1.65,0.38c0,0,0,0,0,0c-1.67,0-3.17-0.57-4.65-1.75
		c-0.36-0.29-0.75-0.44-1.14-0.44c-0.44,0-0.82,0.19-1.12,0.54c-0.3,0.36-0.44,0.78-0.4,1.18c0.04,0.39,0.26,0.74,0.63,1.01
		c0.89,0.66,1.94,1.27,3.41,1.96c0.69,0.32,1.43,0.67,1.43,1.91c0,0.9,0.64,1.57,1.52,1.58c0,0,0,0,0,0c0.91,0,1.55-0.67,1.57-1.64
		c0.02-1.1,0.62-1.47,1.27-1.72c2.1-0.8,3.31-2.45,3.3-4.53c-0.03-2.03-1.04-3.41-3.08-4.2c-0.89-0.35-1.85-0.62-2.78-0.87
		c-0.46-0.13-0.92-0.26-1.38-0.39c-0.63-0.19-2.05-0.62-1.68-1.98c0.23-0.83,1.44-1.3,1.99-1.39c0.25-0.04,0.51-0.07,0.76-0.07
		c1.47,0,2.66,0.72,3.53,1.36c0.33,0.24,0.68,0.36,1.02,0.36c0.44,0,0.85-0.21,1.15-0.6c0.27-0.34,0.38-0.75,0.33-1.15
		c-0.05-0.41-0.29-0.79-0.66-1.06c-0.72-0.53-1.55-1.01-2.48-1.41c-0.62-0.27-1.28-0.65-1.29-1.81
		C51.43,39.8,50.8,39.11,49.89,39.11l0-0.33c0,0,0,0,0,0c0,0,0,0,0,0V39.11z"/>
</g>
</svg>
