<?xml version="1.0" encoding="utf-8"?>
<!-- Generator: Adobe Illustrator 23.0.1, SVG Export Plug-In . SVG Version: 6.00 Build 0)  -->
<svg version="1.1" id="Layer_1" xmlns="http://www.w3.org/2000/svg" xmlns:xlink="http://www.w3.org/1999/xlink" x="0px" y="0px"
	 viewBox="0 0 100 100" style="enable-background:new 0 0 100 100;" xml:space="preserve">
<g>
	<g>
		<path d="M63.57,23.26l6.74-15.86c0.37-0.86,0.04-1.86-0.77-2.34L66.24,3.1c-2.59-1.54-5.91-1.3-8.24,0.61l-0.51,0.42
			c-1.27,1.04-3.11,1.04-4.38,0l-0.02-0.02c-2.65-2.16-6.49-2.16-9.13,0.01c-1.27,1.04-3.12,1.04-4.39,0L39.04,3.7
			c-2.33-1.9-5.63-2.15-8.22-0.63l-3.4,2c-0.81,0.48-1.14,1.49-0.77,2.35l6.79,15.83c-4.91,1.77-9.1,5.16-11.84,9.62
			c-0.54,0.88-0.27,2.03,0.61,2.58c0.88,0.54,2.03,0.27,2.58-0.61c2.36-3.82,5.98-6.71,10.22-8.17h26.96
			c7.85,2.69,13.11,10.03,13.11,18.35v4.97c0,1.03,0.84,1.87,1.87,1.87s1.87-0.84,1.87-1.87v-4.97
			C78.81,35.23,72.72,26.58,63.57,23.26z M59.64,22.92H37.37L30.74,7.46l1.98-1.16c1.24-0.73,2.83-0.61,3.95,0.3l0.52,0.42
			c2.65,2.16,6.49,2.16,9.13-0.01c1.27-1.04,3.12-1.04,4.39,0l0.02,0.02c2.64,2.16,6.48,2.16,9.12,0l0.51-0.42
			c1.12-0.92,2.72-1.04,3.96-0.29l1.9,1.13L59.64,22.92z"/>
	</g>
</g>
<g>
	<g>
		<path d="M51.39,55.74c-0.35-0.35-0.83-0.55-1.32-0.55s-0.98,0.2-1.32,0.55c-0.35,0.35-0.55,0.83-0.55,1.32
			c0,0.49,0.2,0.98,0.55,1.32c0.35,0.35,0.83,0.55,1.32,0.55s0.98-0.2,1.32-0.55c0.35-0.35,0.55-0.83,0.55-1.32
			C51.94,56.57,51.74,56.08,51.39,55.74z"/>
	</g>
</g>
<g>
	<g>
		<path d="M51.39,85.59c-0.35-0.35-0.83-0.55-1.32-0.55s-0.98,0.2-1.32,0.55c-0.35,0.35-0.55,0.83-0.55,1.32s0.2,0.98,0.55,1.32
			c0.35,0.35,0.83,0.55,1.32,0.55s0.98-0.2,1.32-0.55c0.35-0.35,0.55-0.83,0.55-1.32S51.74,85.94,51.39,85.59z"/>
	</g>
</g>
<g>
	<g>
		<path d="M98,80.32c0-2.07-0.89-3.94-2.31-5.24c1.42-1.3,2.31-3.17,2.31-5.24c0-3.92-3.19-7.12-7.12-7.12H70.66
			c-3.92,0-7.12,3.19-7.12,7.12c0,2.07,0.89,3.94,2.31,5.24c-1.42,1.3-2.31,3.17-2.31,5.24s0.89,3.94,2.31,5.24
			c-1.42,1.3-2.31,3.17-2.31,5.24c0,1.22,0.31,2.37,0.85,3.37h-7.62v-7.32c0-9.9-7.61-18.06-17.29-18.93
			c-0.26-0.08-0.54-0.1-0.81-0.06c-0.03,0-0.06,0-0.09,0c2.43-2.37,3.94-5.69,3.94-9.34V39.87c0-1.03-0.84-1.87-1.87-1.87H26.78
			c-5.73,0-10.4,4.66-10.4,10.4v10.12c0,3.66,1.51,6.97,3.94,9.34c-0.03,0-0.06,0-0.09,0c-0.27-0.04-0.55-0.02-0.81,0.06
			C9.74,68.8,2.13,76.95,2.13,86.86v9.19c0,1.03,0.84,1.87,1.87,1.87h28.84H54.9h15.76h19.1h1.12c3.92,0,7.12-3.19,7.12-7.12
			c0-2.07-0.89-3.94-2.31-5.24C97.11,84.26,98,82.39,98,80.32z M20.12,51.02V48.4c0-3.67,2.98-6.65,6.65-6.65h12v5.01
			c0,2.53-2.06,4.59-4.59,4.59H20.12V51.02z M20.12,58.52v-3.43h14.06c1.7,0,3.27-0.51,4.59-1.38v4.81c0,5.14-4.18,9.33-9.33,9.33
			S20.12,63.67,20.12,58.52z M34.42,71.59l-4.97,4.97l-4.97-4.97H34.42z M53.03,94.18H32.84v0H5.87v-5.39h15.28
			c1.03,0,1.87-0.84,1.87-1.87c0-1.03-0.84-1.87-1.87-1.87H5.98c0.83-6.96,6.36-12.49,13.31-13.33l8.83,8.83
			c0.37,0.37,0.84,0.55,1.32,0.55s0.96-0.18,1.32-0.55l8.83-8.83c7.55,0.91,13.42,7.35,13.42,15.15V94.18z M90.88,94.18h-1.12h-19.1
			c-1.86,0-3.37-1.51-3.37-3.37s1.51-3.37,3.37-3.37h20.22c1.86,0,3.37,1.51,3.37,3.37S92.74,94.18,90.88,94.18z M90.88,83.69H70.66
			c-1.86,0-3.37-1.51-3.37-3.37s1.51-3.37,3.37-3.37h20.22c1.86,0,3.37,1.51,3.37,3.37S92.74,83.69,90.88,83.69z M90.88,73.21H70.66
			c-1.86,0-3.37-1.51-3.37-3.37s1.51-3.37,3.37-3.37h20.22c1.86,0,3.37,1.51,3.37,3.37S92.74,73.21,90.88,73.21z"/>
	</g>
</g>
<g>
	<g>
		<path d="M50.06,44.76c-1.5,0-2.72-1.03-2.72-2.29c0-1.26,1.22-2.29,2.72-2.29s2.72,1.03,2.72,2.29c0,1.03,0.84,1.87,1.87,1.87
			s1.87-0.84,1.87-1.87c0-2.72-1.94-5.03-4.59-5.78V36.4c0-1.03-0.84-1.87-1.87-1.87s-1.87,0.84-1.87,1.87v0.28
			c-2.65,0.75-4.59,3.06-4.59,5.78c0,3.33,2.9,6.04,6.46,6.04c1.5,0,2.72,1.03,2.72,2.29c0,1.26-1.22,2.29-2.72,2.29
			s-2.72-1.03-2.72-2.29c0-1.03-0.84-1.87-1.87-1.87s-1.87,0.84-1.87,1.87c0,2.72,1.94,5.03,4.59,5.78v0.12
			c0,1.03,0.84,1.87,1.87,1.87s1.87-0.84,1.87-1.87v-0.12c2.65-0.75,4.59-3.06,4.59-5.78C56.53,47.46,53.63,44.76,50.06,44.76z"/>
	</g>
</g>
</svg>
