<?xml version="1.0" encoding="utf-8"?>
<!-- Generator: Adobe Illustrator 23.0.1, SVG Export Plug-In . SVG Version: 6.00 Build 0)  -->
<svg version="1.1" id="Layer_1" xmlns="http://www.w3.org/2000/svg" xmlns:xlink="http://www.w3.org/1999/xlink" x="0px" y="0px"
	 viewBox="0 0 100 100" style="enable-background:new 0 0 100 100;" xml:space="preserve">
<path d="M83.33,22.52c1.81-0.85,3.34-1.84,5.02-2.28c3.19-0.85,6.56,0.71,8.33,3.52c1.82,2.89,1.82,6.7-0.46,9.19
	c-3.54,3.85-7.32,7.49-11.05,11.16c-1.02,1.01-2.24,0.9-3.25-0.1c-3.57-3.54-7.2-7.02-10.62-10.69c-2.83-3.03-2.59-7.82,0.26-10.83
	c2.84-3.01,7.48-3.31,10.8-0.71C82.77,22.09,83.18,22.4,83.33,22.52z M83.65,39.14c3.03-2.99,6.17-5.98,9.16-9.12
	c1.14-1.2,0.77-3.34-0.42-4.49c-1.23-1.18-3.32-1.32-4.67-0.25c-0.7,0.56-1.32,1.23-1.95,1.86c-1.5,1.5-2.67,1.51-4.22,0.03
	c-0.65-0.62-1.25-1.31-1.96-1.86c-1.52-1.18-3.48-1.04-4.77,0.26c-1.28,1.29-1.47,3.35-0.13,4.74
	C77.59,33.32,80.64,36.18,83.65,39.14z"/>
<path d="M27.77,50.43c0,0-1.02-3.64-6.61-3.57c-5.59,0.07-6.68,1.78-6.68,1.78s-2.11,1.9,1.02,3.81s13.23,2.66,17.11,4.3
	c3.88,1.64,8.52,6.2,6.2,14.86s-15.34,9.41-15.34,9.41S12.43,81.64,6.5,75.36c-3.2-3.48-3.88-6.82-4.5-8.79
	c2.45,0.14,10.91,0,10.91,0s1.16,4.84,8.73,4.77c7.57-0.07,7.57-3.48,7.57-3.48s1.91-2.86-6.48-4.43
	c-8.39-1.57-15.07-1.91-18.82-8.59C2,49.93,4.45,41.41,11.61,39.23s14.93-2.25,21,1.64s5.86,9.57,5.86,9.57H27.77z"/>
<path d="M45.87,38.85h-4.81v9.31h4.81v31.81h10.53V47.95h7.46v-9.1h-7.16c0,0-1.23-7.46,7.57-7.46V21.36c0,0-13.09-2.35-17.59,11.15
	C46.18,35.37,45.98,35.89,45.87,38.85z"/>
</svg>
